<svg xmlns="http://www.w3.org/2000/svg" viewBox="0 0 181.72 33.86" preserveAspectRatio="xMinYMid"><g data-name="Ebene 2"><g data-name="Ebene 1" fill="#fff"><path d="M15.88 8.91a10.64 10.64 0 0 1 .79-4.37 8.07 8.07 0 0 1 1.56-2.33A7.24 7.24 0 0 1 20.44.66 9.37 9.37 0 0 1 24.12 0a8 8 0 0 1 6 2.33 9 9 0 0 1 2.26 6.5 9 9 0 0 1-2.23 6.46 8 8 0 0 1-6 2.33 8 8 0 0 1-6-2.33 8.72 8.72 0 0 1-2.27-6.38zM.16 17.31v-17h3.45V7h6.69V.31h3.45v17H10.3V9.88H3.61v7.43zm34.06 0V.45h3.44v14h8.53v2.87zm14.29 0v-17H52v17zm6.72-17h6.27a12.62 12.62 0 0 1 3.23.33 5.49 5.49 0 0 1 2.54 1.57A7.26 7.26 0 0 1 68.91 5a12.83 12.83 0 0 1 .55 4 11 11 0 0 1-.52 3.61 7.7 7.7 0 0 1-1.81 3A6.29 6.29 0 0 1 64.71 17a10.74 10.74 0 0 1-3 .35h-6.48zm31.77 17h-3.7l-1.47-3.87H75l-1.42 3.87h-3.65l6.61-17h3.63zm3.16 0v-7.15L83.92.31h4l4 6.74L95.87.31h4l-6.24 9.88v7.12zm-70.74-8.5a6.41 6.41 0 0 0 1.33 4.37 4.59 4.59 0 0 0 6.77 0 6.51 6.51 0 0 0 1.33-4.44 6.39 6.39 0 0 0-1.28-4.37 4.34 4.34 0 0 0-3.42-1.45 4.36 4.36 0 0 0-3.42 1.45 6.43 6.43 0 0 0-1.31 4.44zm39.26-5.63v11.26h2.56a8.6 8.6 0 0 0 2.07-.17 3.36 3.36 0 0 0 1.38-.71 3.54 3.54 0 0 0 .87-1.64 10.63 10.63 0 0 0 .36-3.11 9.75 9.75 0 0 0-.36-3 3.55 3.55 0 0 0-1-1.63A3.18 3.18 0 0 0 63 3.35a14.16 14.16 0 0 0-2.8-.17zm22 7.39l-2.35-6.3-2.33 6.3zM113.25 11.35l2.26.57a7.7 7.7 0 0 1-2.51 4.23 7.07 7.07 0 0 1-4.49 1.45 8.11 8.11 0 0 1-4.51-1.12 7 7 0 0 1-2.61-3.25 11.6 11.6 0 0 1-.9-4.54 9.79 9.79 0 0 1 1-4.63 6.93 6.93 0 0 1 2.87-3 8.48 8.48 0 0 1 4.13-1 6.88 6.88 0 0 1 4.28 1.31A6.62 6.62 0 0 1 115.22 5l-2.22.49a5.23 5.23 0 0 0-1.7-2.69 4.52 4.52 0 0 0-2.82-.8 5.42 5.42 0 0 0-3.28 1 4.8 4.8 0 0 0-1.85 2.51 10 10 0 0 0-.53 3.26 10.28 10.28 0 0 0 .65 3.8 4.58 4.58 0 0 0 1.94 2.4 5.44 5.44 0 0 0 2.88.8 4.78 4.78 0 0 0 3.2-1.09 5.58 5.58 0 0 0 1.76-3.33zm48.71 0l2.25.57a7.64 7.64 0 0 1-2.54 4.23 7 7 0 0 1-4.49 1.45 8.1 8.1 0 0 1-4.46-1.12 7 7 0 0 1-2.61-3.25 11.43 11.43 0 0 1-.9-4.54 9.79 9.79 0 0 1 1-4.63 6.88 6.88 0 0 1 2.87-3 8.48 8.48 0 0 1 4.13-1 6.9 6.9 0 0 1 4.28 1.31A6.62 6.62 0 0 1 163.93 5l-2.21.53A5.23 5.23 0 0 0 160 2.8a4.55 4.55 0 0 0-2.82-.8 5.41 5.41 0 0 0-3.27 1 4.87 4.87 0 0 0-1.86 2.51 10.25 10.25 0 0 0-.52 3.26 10.5 10.5 0 0 0 .64 3.8 4.65 4.65 0 0 0 2 2.4 5.41 5.41 0 0 0 2.87.8 4.81 4.81 0 0 0 3.21-1.09 5.58 5.58 0 0 0 1.75-3.33zm-44.06 6V.31h2.26v7H129v-7h2.25v17H129v-8h-8.79v8zm16.63 0V.31h12.28v2h-10v5.22h9.39v2h-9.39v5.8h10.43v2zm31.89 0V.31h2.26v8.43l8.45-8.43h3l-7.08 6.89 7.43 10.11h-3l-6-8.57-2.78 2.68v5.89zM0 25.53h98.72v7.72H0zM113.73 33.86l-4.32-3.14-4.33 3.14 1.66-5.08-4.33-3.14h5.35l1.65-5.09 1.65 5.09h5.34l-4.32 3.14 1.65 5.08M130.06 33.86l-4.32-3.14-4.32 3.14 1.65-5.08-4.33-3.14h5.35l1.65-5.09 1.65 5.09h5.34l-4.32 3.14 1.65 5.08M146.39 33.86l-4.32-3.14-4.32 3.14 1.65-5.08-4.33-3.14h5.35l1.65-5.09 1.65 5.09h5.34l-4.32 3.14 1.65 5.08M162.72 33.86l-4.32-3.14-4.33 3.14 1.66-5.08-4.33-3.14h5.35l1.65-5.09 1.65 5.09h5.34l-4.32 3.14 1.65 5.08M179.05 33.86l-4.32-3.14-4.32 3.14 1.65-5.08-4.33-3.14h5.35l1.65-5.09 1.65 5.09h5.34l-4.32 3.14 1.65 5.08"/></g></g></svg>
