<svg xmlns="http://www.w3.org/2000/svg" viewBox="0 0 117.49 34.67" preserveAspectRatio="xMinYMid"><g data-name="Ebene 2"><g data-name="Ebene 1" fill="#fff"><path d="M16.74 7.64h5.58v2.94h.06a6.21 6.21 0 0 1 2.09-2.49 5.23 5.23 0 0 1 3.05-.84h1a5 5 0 0 1 .89.14v5a10.53 10.53 0 0 0-1.16-.27 7.77 7.77 0 0 0-1.2-.1 5.76 5.76 0 0 0-2.5.45 3.4 3.4 0 0 0-1.42 1.22 4.74 4.74 0 0 0-.63 1.9 18 18 0 0 0-.14 2.42v7.48h-5.62V7.64M30.69 7.64h5.44v17.92h-5.44zm-.22-4.71a2.82 2.82 0 0 1 .86-2.07 2.92 2.92 0 0 1 4.14 0 2.81 2.81 0 0 1 .85 2.07A2.81 2.81 0 0 1 35.47 5a2.92 2.92 0 0 1-4.14 0 2.82 2.82 0 0 1-.86-2.06M66.46 17.77H64.9a7.7 7.7 0 0 0-1.8.3 4.1 4.1 0 0 0-1.47.76 1.77 1.77 0 0 0-.6 1.43 1.56 1.56 0 0 0 .84 1.46 3.54 3.54 0 0 0 1.77.48 5.5 5.5 0 0 0 1.56-.2 4.86 4.86 0 0 0 1.34-.63 3.09 3.09 0 0 0 .95-1 3 3 0 0 0 .36-1.47v-1.13h-1.39m1.39 5.58h-.1a5.62 5.62 0 0 1-2.44 2 8.35 8.35 0 0 1-3.22.61 8 8 0 0 1-2.4-.36 6 6 0 0 1-2-1.05 5 5 0 0 1-1.4-1.73 5.28 5.28 0 0 1-.51-2.38 5.47 5.47 0 0 1 .57-2.61 5 5 0 0 1 1.54-1.76A7.66 7.66 0 0 1 60.07 15a18.35 18.35 0 0 1 2.59-.57c.9-.12 1.79-.19 2.68-.22h2.48a2.87 2.87 0 0 0-1-2.33A3.77 3.77 0 0 0 64.3 11a5.36 5.36 0 0 0-2.48.57 6.65 6.65 0 0 0-2 1.56l-2.94-3A10.25 10.25 0 0 1 60.48 8a13 13 0 0 1 4.26-.71 11.23 11.23 0 0 1 4 .6 5.92 5.92 0 0 1 2.5 1.78 7 7 0 0 1 1.28 2.89 19.34 19.34 0 0 1 .34 3.94v9.1h-5zM98.53 16.61a5 5 0 0 0 1 3.27 4.09 4.09 0 0 0 5.89 0 5 5 0 0 0 1-3.27 5 5 0 0 0-1-3.27 4.09 4.09 0 0 0-5.89 0 5 5 0 0 0-1 3.27m-5 0a10.36 10.36 0 0 1 .69-3.86 9 9 0 0 1 1.93-2.95A8.3 8.3 0 0 1 99 7.91a9.64 9.64 0 0 1 7 0 8.3 8.3 0 0 1 2.86 1.89 9 9 0 0 1 1.91 2.95 10.36 10.36 0 0 1 .7 3.86 10.32 10.32 0 0 1-.7 3.86 8.94 8.94 0 0 1-1.91 3 8.3 8.3 0 0 1-2.86 1.84 9.64 9.64 0 0 1-7 0 8.3 8.3 0 0 1-2.86-1.89 8.94 8.94 0 0 1-1.91-3 10.32 10.32 0 0 1-.69-3.86M114.63 12.43A2.33 2.33 0 1 1 117 10.1a2.34 2.34 0 0 1-2.33 2.33m0-5.19a2.86 2.86 0 1 0 2.86 2.86 2.86 2.86 0 0 0-2.86-2.86"/><path d="M115 9.53a.48.48 0 0 0 0-.18.3.3 0 0 0-.13-.12h-.58v.74h.44a.49.49 0 0 0 .18-.08.34.34 0 0 0 .09-.12.36.36 0 0 0 0-.19m1.11 1.91h-.84l-.77-1h-.25v1h-.69V8.68h1.11a2.33 2.33 0 0 1 .4 0 .88.88 0 0 1 .32.12.76.76 0 0 1 .23.24.7.7 0 0 1 .09.37.94.94 0 0 1-.14.52 1.1 1.1 0 0 1-.39.31zM87.72 7.62V10h-.08a3.47 3.47 0 0 0-.64-.65 8 8 0 0 0-1.41-.94 8.28 8.28 0 0 0-1.76-.7 9.44 9.44 0 0 0-2.28-.31 7.39 7.39 0 0 0-3.45.88 6.59 6.59 0 0 0-2.42 2 8.1 8.1 0 0 0-1.36 2.92 14.48 14.48 0 0 0-.39 3.65 13.88 13.88 0 0 0 .54 3.79 7.72 7.72 0 0 0 1.56 3 6.38 6.38 0 0 0 2.6 1.77 8.69 8.69 0 0 0 3.56.6 7.17 7.17 0 0 0 2.6-.56 5.25 5.25 0 0 0 2.27-1.72h.06v1.74a4.28 4.28 0 0 1-1.07 3.15 4.84 4.84 0 0 1-3.66 1.26 9.86 9.86 0 0 1-3-.28 10.29 10.29 0 0 1-3.19-1.43l-2.67 3.93a12.13 12.13 0 0 0 4.26 2.08 18.17 18.17 0 0 0 4.71.54c3.49 0 6-.88 7.66-2.64s2.4-4.33 2.4-7.72V7.62h-4.84M86.35 19.9a4.11 4.11 0 0 1-5.9 0 4.93 4.93 0 0 1-1-3.28 5 5 0 0 1 1-3.28 4.11 4.11 0 0 1 5.9 0 5 5 0 0 1 1.05 3.28 4.93 4.93 0 0 1-1.05 3.28zM15.27 12.05H9.84v6a10.52 10.52 0 0 0 .16 1.33 2.73 2.73 0 0 0 .38 1.05 1.87 1.87 0 0 0 .88.68 4.22 4.22 0 0 0 1.56.24 12 12 0 0 0 1.29-.09 2.5 2.5 0 0 0 1.21-.43v4.59a10.72 10.72 0 0 1-2.11.44A19.73 19.73 0 0 1 11 26a12.49 12.49 0 0 1-2.83-.29 6.63 6.63 0 0 1-2.27-.94 4.39 4.39 0 0 1-1.53-1.67 5.26 5.26 0 0 1-.56-2.49v-8.56H0V7.64h3.82V2.35h6v5.29h5.43v4.41M36.85 7.64h5.95l4.51 12.19h.08l4.19-12.19h5.54l-7.05 17.92h-5.84L36.85 7.64"/></g></g></svg>
