<svg xmlns="http://www.w3.org/2000/svg" viewBox="0 0 200 200"><g data-name="Ebene 2"><g data-name="Ebene 1"><path fill="#847465" opacity=".06" d="M0 0h200v200H0z"/><path d="M162 106.92a28.79 28.79 0 0 0-44.61-24.06 89.1 89.1 0 0 0-4.77-15c-5.23-12.31-12.09-19.08-19.3-19.08s-14.07 6.75-19.29 19a88.6 88.6 0 0 0-4.54 14.12l-7.23-26.51a2.21 2.21 0 0 0-4.27 0l-19.94 73.1a2.21 2.21 0 0 0 2.13 2.8h17.73V149a2.22 2.22 0 0 0 4.43 0v-17.71h17.72a2.21 2.21 0 0 0 1.76-.87 2.18 2.18 0 0 0 .44-1.55 26.42 26.42 0 0 0 8.88 2.33V149a2.22 2.22 0 0 0 4.43 0v-17.8a26.56 26.56 0 0 0 15.13-6.35 28.73 28.73 0 0 0 20.3 10.78V149a2.22 2.22 0 0 0 4.43 0v-13.36A28.84 28.84 0 0 0 162 106.92zm-84.84 19.94H62.34v-3.51l3.92-3.92a2.22 2.22 0 0 0-3.13-3.14l-.79.79v-14.59a2.22 2.22 0 0 0-4.43 0v10.16L55 109.79a2.21 2.21 0 1 0-3.13 3.13l6 6v7.94H43.08l17-62.47 7.51 27.52a96.2 96.2 0 0 0-.89 12.76 26.58 26.58 0 0 0 10.05 20.82zm18.41-3.51l8.21-8.21a2.22 2.22 0 1 0-3.13-3.14l-5.08 5.08v-9.24l6-6a2.22 2.22 0 0 0-3.14-3.13l-2.86 2.86v-5.72a2.22 2.22 0 1 0-4.43 0v16.8l-5.08-5.08a2.22 2.22 0 1 0-3.13 3.14l8.21 8.21v7.83a22.22 22.22 0 0 1-20-22.08 94.23 94.23 0 0 1 7-35.16c4.41-10.37 10-16.31 15.21-16.31s10.79 6 15.22 16.38a94.26 94.26 0 0 1 7 35.09 22.21 22.21 0 0 1-20 22.08zm39.88 7.84v-3.41l8.21-8.21a2.22 2.22 0 0 0-3.13-3.14l-5.08 5.08v-14.59a2.22 2.22 0 0 0-4.43 0v10.16l-5.08-5.08a2.22 2.22 0 0 0-3.14 3.14l8.22 8.21v7.84a24.36 24.36 0 0 1-17.19-9.52 26.55 26.55 0 0 0 6.14-17 97.43 97.43 0 0 0-1.58-17.07 24.37 24.37 0 1 1 17.06 43.59z" fill="#fff"/></g></g></svg>