<svg xmlns="http://www.w3.org/2000/svg" viewBox="0 0 200 200"><g data-name="Ebene 2"><g data-name="Ebene 1"><path fill="#847465" opacity=".06" d="M0 0h200v200H0z"/><path d="M131.14 127.84a18.57 18.57 0 0 1-18.05-14.09l-.38-1.57a18.12 18.12 0 0 1-.37-7.23l3.83-26.67a2.15 2.15 0 0 1 2.12-1.84H144a2.15 2.15 0 0 1 2.12 1.84l3.83 26.79a18.2 18.2 0 0 1-.39 7.27l-.35 1.49a18.61 18.61 0 0 1-18.07 14.01zm-11-47.11l-3.57 24.84a14 14 0 0 0 .29 5.58l.38 1.59a14.3 14.3 0 0 0 13.89 10.82A14.32 14.32 0 0 0 145 112.81l.36-1.5a14.07 14.07 0 0 0 .31-5.62l-3.58-25z" fill="#fff" stroke="#fff" stroke-miterlimit="10"/><path d="M129 125.7h4.28v28.24a1.25 1.25 0 0 1-1.28 1.26h-1.77a1.25 1.25 0 0 1-1.26-1.26z" fill="#fff" stroke="#fff" stroke-miterlimit="10"/><rect x="116.97" y="159.96" width="28.26" height="4.28" rx="1.25" ry="1.25" fill="#fff" stroke="#fff" stroke-miterlimit="10"/><path d="M79.87 75.16V37.9a2.14 2.14 0 0 0-2.14-2.14H64.88a2.14 2.14 0 0 0-2.14 2.14v37.26a25.23 25.23 0 0 0-12.85 22.08v47.61a1.25 1.25 0 0 0 1.25 1.25h1.78a1.25 1.25 0 0 0 1.25-1.25V97.24a21 21 0 0 1 11.65-18.87 2.18 2.18 0 0 0 1.2-2V41a1 1 0 0 1 1-1h6.57a1 1 0 0 1 1 1v35.41a2.17 2.17 0 0 0 1.19 2 20.94 20.94 0 0 1 11.65 18.83v61.47a1.25 1.25 0 0 1-1.25 1.29H55.43a1.25 1.25 0 0 1-1.26-1.25v-5.08a1.26 1.26 0 0 0-1.25-1.26h-1.78a1.26 1.26 0 0 0-1.25 1.26v8.47a2.14 2.14 0 0 0 2.11 2.1h38.58a2.14 2.14 0 0 0 2.14-2.14V97.24a25.23 25.23 0 0 0-12.85-22.08z" fill="#fff" stroke="#fff" stroke-miterlimit="10"/></g></g></svg>