
<svg width="43px" height="43px" viewBox="0 0 43 43" version="1.1" xmlns="http://www.w3.org/2000/svg" xmlns:xlink="http://www.w3.org/1999/xlink">
    <g id="Page-1" stroke="none" stroke-width="1" fill="none" fill-rule="evenodd">
        <g id="winter">
            <rect id="Rectangle" fill="#FFFFFF" fill-rule="nonzero" transform="translate(21.213203, 21.213203) rotate(-45.000000) translate(-21.213203, -21.213203) " x="6.21320344" y="6.21320344" width="30" height="30"></rect>
            <g id="Group" opacity="0.25" transform="translate(11.627734, 11.623203)" stroke="#847465" stroke-linecap="round" stroke-linejoin="round" stroke-width="0.8">
                <line x1="9.59" y1="1.77635684e-15" x2="9.59" y2="19.19" id="Path"></line>
                <line x1="9.59" y1="2.7" x2="11.12" y2="1.17" id="Path"></line>
                <line x1="9.59" y1="2.7" x2="8.07" y2="1.17" id="Path"></line>
                <line x1="9.59" y1="5.05" x2="11.65" y2="3" id="Path"></line>
                <line x1="9.59" y1="5.05" x2="7.54" y2="3" id="Path"></line>
                <line x1="9.59" y1="16.49" x2="8.07" y2="18.01" id="Path"></line>
                <line x1="9.59" y1="16.49" x2="11.12" y2="18.01" id="Path"></line>
                <line x1="9.59" y1="14.14" x2="7.54" y2="16.19" id="Path"></line>
                <line x1="9.59" y1="14.14" x2="11.65" y2="16.19" id="Path"></line>
                <line x1="1.77635684e-15" y1="9.59" x2="19.19" y2="9.59" id="Path"></line>
                <line x1="2.7" y1="9.59" x2="1.17" y2="8.07" id="Path"></line>
                <line x1="2.7" y1="9.59" x2="1.17" y2="11.12" id="Path"></line>
                <line x1="5.05" y1="9.59" x2="3" y2="7.54" id="Path"></line>
                <line x1="5.05" y1="9.59" x2="3" y2="11.65" id="Path"></line>
                <line x1="16.49" y1="9.59" x2="18.01" y2="11.12" id="Path"></line>
                <line x1="16.49" y1="9.59" x2="18.01" y2="8.07" id="Path"></line>
                <line x1="14.14" y1="9.59" x2="16.19" y2="11.65" id="Path"></line>
                <line x1="14.14" y1="9.59" x2="16.19" y2="7.54" id="Path"></line>
                <line x1="2.81" y1="16.38" x2="16.38" y2="2.81" id="Path"></line>
                <line x1="4.72" y1="14.47" x2="2.56" y2="14.47" id="Path"></line>
                <line x1="4.72" y1="14.47" x2="4.72" y2="16.62" id="Path"></line>
                <line x1="6.38" y1="12.81" x2="3.47" y2="12.81" id="Path"></line>
                <line x1="6.38" y1="12.81" x2="6.38" y2="15.71" id="Path"></line>
                <line x1="14.47" y1="4.72" x2="16.62" y2="4.72" id="Path"></line>
                <line x1="14.47" y1="4.72" x2="14.47" y2="2.56" id="Path"></line>
                <line x1="12.81" y1="6.38" x2="15.71" y2="6.38" id="Path"></line>
                <line x1="12.81" y1="6.38" x2="12.81" y2="3.47" id="Path"></line>
                <line x1="16.38" y1="16.38" x2="2.81" y2="2.81" id="Path"></line>
                <line x1="14.47" y1="14.47" x2="14.47" y2="16.62" id="Path"></line>
                <line x1="14.47" y1="14.47" x2="16.62" y2="14.47" id="Path"></line>
                <line x1="12.81" y1="12.81" x2="12.81" y2="15.71" id="Path"></line>
                <line x1="12.81" y1="12.81" x2="15.71" y2="12.81" id="Path"></line>
                <line x1="4.72" y1="4.72" x2="4.72" y2="2.56" id="Path"></line>
                <line x1="4.72" y1="4.72" x2="2.56" y2="4.72" id="Path"></line>
                <line x1="6.38" y1="6.38" x2="6.38" y2="3.47" id="Path"></line>
                <line x1="6.38" y1="6.38" x2="3.47" y2="6.38" id="Path"></line>
            </g>
        </g>
    </g>
</svg>
