<svg xmlns="http://www.w3.org/2000/svg" viewBox="0 0 187.57 31.2" preserveAspectRatio="xMinYMid"><g data-name="Ebene 2"><g data-name="Ebene 1" fill="#fff"><path d="M161.76 7.42H164.35A2 2 0 0 1 166.21 9c0 .12.06.23.09.35s.06.2.19 0A7.82 7.82 0 0 1 168 8a6.26 6.26 0 0 1 2.56-1 6.43 6.43 0 0 1 1.91 0 4.64 4.64 0 0 1 3.58 2.54c.18.35.2.36.43 0a6.62 6.62 0 0 1 2.47-2 7.54 7.54 0 0 1 2.05-.49 6.9 6.9 0 0 1 2 0 4.68 4.68 0 0 1 4 3.13 8.93 8.93 0 0 1 .49 2.28v12.1h-2.47a2.19 2.19 0 0 1-1.75-.71 2.08 2.08 0 0 1-.49-1.37v-7.79a8.62 8.62 0 0 0-.17-1.9 1.57 1.57 0 0 0-1.56-1.36 3.38 3.38 0 0 0-3.05 1.71 6.43 6.43 0 0 0-.83 2.21 8.29 8.29 0 0 0-.17 1.79v7.15c0 .22-.07.26-.26.26h-4.21c-.19 0-.26 0-.26-.24v-9.85a4.77 4.77 0 0 0-.32-1.94 1.87 1.87 0 0 0-2-1.13 3 3 0 0 0-2.27 1.36 6.11 6.11 0 0 0-1 2.32 10.49 10.49 0 0 0-.25 2.37v6.86c0 .2 0 .25-.25.25h-4.21c-.19 0-.26 0-.26-.25v-6.33-.22 6.59s.05 0 0 0a1.33 1.33 0 0 1 0-.2V7.69a.5.5 0 0 1 .05-.27zM76.85 0a5 5 0 0 1 1 .37 2.91 2.91 0 0 1 1.39 3A2.87 2.87 0 0 1 77 5.66a2.82 2.82 0 0 1-3.39-2.3A2.84 2.84 0 0 1 75.87 0H76zM72.74 24.55c-1.55 0-3.06 0-4.56-.05a2.34 2.34 0 0 1-1.93-1.18c-.48-.78-.87-1.61-1.31-2.42-.54-1-1.07-2-1.59-3a.8.8 0 0 0-.67-.45 3.66 3.66 0 0 0-.66 0c-.34 0-.3-.06-.3.29v6.66c0 .19 0 .19-.18.19h-4.6c-.14 0-.18 0-.18-.18V1c0-.33 0-.29.28-.29h2.69a1.85 1.85 0 0 1 1.89 1.49 3.56 3.56 0 0 1 .1.92v9.68c0 .31 0 .31.32.31h.76a1.16 1.16 0 0 0 1-.57c1.07-1.67 2.16-3.34 3.23-5a.31.31 0 0 1 .29-.16h5.39l-.38.58-4.22 6.26a6.64 6.64 0 0 1-.75.93c-.06.05-.12.1 0 .18a7.92 7.92 0 0 1 1.38 2.23c1.09 2.17 2.38 4.22 3.63 6.3.08.19.21.42.37.69zM86.69 9.29c.29-.27.54-.55.83-.79A6.58 6.58 0 0 1 91.58 7a7.62 7.62 0 0 1 3.07.42 4.94 4.94 0 0 1 3.07 3.33 9.07 9.07 0 0 1 .39 2.69v10.85c0 .32 0 .28-.3.28H95.3a2.11 2.11 0 0 1-2.13-2.18v-3.8-4.28A5 5 0 0 0 93 13a1.72 1.72 0 0 0-1.8-1.42 4.08 4.08 0 0 0-4.2 3.29 6.78 6.78 0 0 0-.21 1.68v7.72c0 .21 0 .28-.27.27h-4.41c-.19 0-.23-.05-.23-.24V7.51c0-.09 0-.18.13-.18h2.62a2.11 2.11 0 0 1 2 1.76l.06.2zM140.66 11.89v1.23c0 .14 0 .19-.18.19h-2.36a1.74 1.74 0 0 1-1.73-1.36 1 1 0 0 0-.72-.61 4.45 4.45 0 0 0-4.76 1.29 4.69 4.69 0 0 0-1 2 5.65 5.65 0 0 0-.06 2.42 4.26 4.26 0 0 0 2.41 3.18 5.26 5.26 0 0 0 3.17.43 6.63 6.63 0 0 0 2.94-1.31 6.25 6.25 0 0 0 1.05-.94c.08-.09.12-.11.2 0l1.88 3.13c.08.12 0 .21 0 .31a8.74 8.74 0 0 1-2 1.66 9.29 9.29 0 0 1-2.66 1.12 10.67 10.67 0 0 1-3.94.22 9.24 9.24 0 0 1-3.92-1.4 8.29 8.29 0 0 1-3.33-4.16 9.22 9.22 0 0 1-.58-3.56 8.58 8.58 0 0 1 2.6-6.13 8.74 8.74 0 0 1 3.49-2.08 10.67 10.67 0 0 1 3-.49 9.37 9.37 0 0 1 4 .71 4.27 4.27 0 0 1 2.26 1.88 2.87 2.87 0 0 1 .33 1.41v.88zM74.15 15.94V7.55c0-.1 0-.22.15-.21h2.69a2.1 2.1 0 0 1 2 2v14.89c0 .2 0 .25-.25.25h-4.33c-.21 0-.25-.06-.25-.25v-8.35zM121.39 24.73a2.86 2.86 0 0 1-2.87-2.87 2.87 2.87 0 1 1 2.87 2.87zM116.59 23.68a1.08 1.08 0 0 1 0-.4V7.65c0-.32 0-.32-.32-.32h-2.15c.07-.06.15 0 .22 0h2.1c.15 0 .21 0 .21.2v15.88c-.04.06-.05.17-.06.27z" fill-rule="evenodd"/><path d="M161.76 7.42V24.5a.45.45 0 0 1 0-.28V18a2.71 2.71 0 0 0 0-.29v-10c-.06-.08-.1-.2 0-.29z" fill-rule="evenodd"/><path d="M13.45 12.22l-.51-.29.33-.29a6.52 6.52 0 0 0 1.05-1.05 5.9 5.9 0 0 0 1.17-4 5.49 5.49 0 0 0-3-4.78 8.56 8.56 0 0 0-4.21-1H2.44a2.4 2.4 0 0 0-1.94 1A3.09 3.09 0 0 0 0 2.85v21.6h8.35a10.43 10.43 0 0 0 3.42-.55 6.6 6.6 0 0 0 3.83-3 6.83 6.83 0 0 0 .68-4.83 5.4 5.4 0 0 0-2.83-3.85zM4.57 8.09V6.15A1.33 1.33 0 0 1 6 4.66a14.64 14.64 0 0 1 2.73 0 2.37 2.37 0 0 1 2.09 2 3.21 3.21 0 0 1-.57 2.71 2.43 2.43 0 0 1-2 .91H4.79c-.16 0-.2-.05-.19-.2zm6.5 11.26a2.82 2.82 0 0 1-2.28 1.06h-4c-.15 0-.17 0-.17-.18V17.8v-2.33A1.35 1.35 0 0 1 6.09 14h2.56a2.93 2.93 0 0 1 2.62 1.37 3.76 3.76 0 0 1-.2 3.98zM116.38 7.31h-1.63a3.64 3.64 0 0 0-.66 0 2 2 0 0 0-1.89 1.29 5.92 5.92 0 0 0-1.08-.8 7.41 7.41 0 0 0-4.77-.8 7 7 0 0 0-5.9 4.74 10.66 10.66 0 0 0-.23 6.79 7.68 7.68 0 0 0 2.47 3.93 7.45 7.45 0 0 0 5.36 1.71 5.77 5.77 0 0 0 3.54-1.28s0-.06.11 0a4.62 4.62 0 0 1 0 .91 3 3 0 0 1-1.79 2.6 6.49 6.49 0 0 1-3.75.33 15 15 0 0 1-2.07-.54 1.36 1.36 0 0 0-1.79.81c0 .07-.07.14-.1.22-.29.73-.58 1.47-.88 2.2-.06.15 0 .21.11.29a13.07 13.07 0 0 0 4 1.35c.41.07.82.12 1.23.18h1.85c0-.05.08 0 .12 0a10.41 10.41 0 0 0 1.76-.28 8.58 8.58 0 0 0 4.06-2.16 7.38 7.38 0 0 0 2.15-5 2.43 2.43 0 0 1 0-.27V7.78a.57.57 0 0 1 0-.13c.01-.29-.05-.34-.22-.34zm-4.94 10.54a3 3 0 0 1-2.87 2 3.29 3.29 0 0 1-3.42-2.43 6.07 6.07 0 0 1 .06-4.24 2.89 2.89 0 0 1 2.79-1.92 4 4 0 0 1 2 .37 3 3 0 0 1 1.55 2.16 7.37 7.37 0 0 1 .18 1.78 6.75 6.75 0 0 1-.29 2.28zM159.73 13.59a8 8 0 0 0-.78-2.06 8.25 8.25 0 0 0-3.28-3.37 9.46 9.46 0 0 0-3.6-1.16 10.68 10.68 0 0 0-2.59 0 8.83 8.83 0 0 0-2.65.8 8.25 8.25 0 0 0-3.45 3 8.94 8.94 0 0 0-1.37 5 12 12 0 0 0 .08 1.33 8.89 8.89 0 0 0 .84 2.8 8.22 8.22 0 0 0 2.77 3.22 9 9 0 0 0 4.3 1.62 9.76 9.76 0 0 0 4.54-.62 8.26 8.26 0 0 0 3.55-2.63 8.43 8.43 0 0 0 1.46-2.82 11.15 11.15 0 0 0 .38-2.06 9.77 9.77 0 0 0-.2-3.05zm-4.57 2.17a5.35 5.35 0 0 1-.91 3.24 3.69 3.69 0 0 1-2.25 1.49 4.19 4.19 0 0 1-2.73-.22 3.88 3.88 0 0 1-2-1.94 5.44 5.44 0 0 1-.52-2.6 4.79 4.79 0 0 1 1.41-3.49 3.83 3.83 0 0 1 3.19-1 3.91 3.91 0 0 1 3.5 2.76 4.64 4.64 0 0 1 .31 1.76zM50.26 8A9.51 9.51 0 0 0 43 7.47a8.15 8.15 0 0 0-5.31 5 9.5 9.5 0 0 0-.43 5.38A8.33 8.33 0 0 0 40.41 23 9.07 9.07 0 0 0 46 24.8a9.33 9.33 0 0 0 2.3-.26A8.29 8.29 0 0 0 54.1 20a9.25 9.25 0 0 0 .7-6.19A8.14 8.14 0 0 0 50.26 8zm-.06 8a5.07 5.07 0 0 1-1 3.24 3.88 3.88 0 0 1-3.39 1.45A4 4 0 0 1 42 17.16a5.51 5.51 0 0 1 .62-4.16 3.85 3.85 0 0 1 4-1.82A4 4 0 0 1 50 14.31a5.2 5.2 0 0 1 .2 1.61zM31.07 8a9.43 9.43 0 0 0-6.62-.7 8.22 8.22 0 0 0-5.86 4.8 9.45 9.45 0 0 0-.66 5.33 8.36 8.36 0 0 0 2.68 5.13 8.94 8.94 0 0 0 6.17 2.27 9.13 9.13 0 0 0 2.66-.35 8.27 8.27 0 0 0 5.5-4.6 9.26 9.26 0 0 0 .65-5.88 8.17 8.17 0 0 0-4.52-6zm-.75 10.62a3.75 3.75 0 0 1-3.15 2 4 4 0 0 1-4.39-3.32l-.09-.48a5.49 5.49 0 0 1-.06-.91 5.06 5.06 0 0 1 1.08-3.3 3.83 3.83 0 0 1 3.65-1.37 3.81 3.81 0 0 1 3.26 2.69 5.56 5.56 0 0 1-.3 4.66z"/></g></g></svg>
