<svg xmlns="http://www.w3.org/2000/svg" viewBox="0 0 240 240.01"><g data-name="Ebene 2"><g data-name="Ebene 1"><path fill="#847465" d="M0 0h240v240.01H0z"/><path d="M19.54 197.63h.93V201h3.39v-3.36h1v8h-1v-3.89h-3.39v3.89h-.93zM35.59 197.49a2.89 2.89 0 0 1 2.53 1.31 5.1 5.1 0 0 1 .73 3 4 4 0 0 1-1.17 3.27 2.81 2.81 0 0 1-2 .77 3 3 0 0 1-2.29-1 4.8 4.8 0 0 1-1-3.19c0-2.59 1.22-4.16 3.2-4.16zm0 .77a1.91 1.91 0 0 0-1.72.94 4.69 4.69 0 0 0-.41 2.22 6.15 6.15 0 0 0 .52 2.8 2.09 2.09 0 0 0 1.71.86 1.77 1.77 0 0 0 1.5-.69 3.73 3.73 0 0 0 .58-2.47 6.13 6.13 0 0 0-.38-2.56 1.91 1.91 0 0 0-1.8-1.1zM45.25 197.63h5.32l-.06.81h-2.17v7.23h-.93v-7.23h-2.16zM57.79 197.69h4.4l-.13.79h-3.29v2.61h2.75v.83h-2.75v2.92h3.54v.83h-4.52zM69.7 197.63h1v7.23h3.18l-.13.81h-4zM90.67 201.79h.81a7.72 7.72 0 0 1-.07 1.27 3.59 3.59 0 0 1-.37 1.15l1.48 1.47H91.3l-.77-.75a3 3 0 0 1-2.3.93 3.53 3.53 0 0 1-1.92-.53 2 2 0 0 1-.8-1.63 1.81 1.81 0 0 1 .39-1.16 3.61 3.61 0 0 1 1.25-.88 5.35 5.35 0 0 1-1-1.09 1.65 1.65 0 0 1 .44-2 2.24 2.24 0 0 1 1.51-.57 2.69 2.69 0 0 1 1.63.56 1.67 1.67 0 0 1 .53 1.25 1.34 1.34 0 0 1-.22.8 2.25 2.25 0 0 1-.79.74l-.67.39 1.85 1.84a1.76 1.76 0 0 0 .23-.93c.01-.26.01-.86.01-.86zm-3 .33a1.74 1.74 0 0 0-1.18 1.63 1.29 1.29 0 0 0 .77 1.19 2.15 2.15 0 0 0 1 .19 2.24 2.24 0 0 0 1.76-.75zm.36-.9a2.35 2.35 0 0 0 1.07-.88 1.53 1.53 0 0 0 .12-.57 1.09 1.09 0 0 0-1.14-1.12 1.19 1.19 0 0 0-.86.35 1 1 0 0 0-.25.72c0 .38.13.6.54 1 .18.17.38.35.55.5zM104.77 197.64h1.88a2.92 2.92 0 0 1 2 .52 2.08 2.08 0 0 1 .8 1.68 2.05 2.05 0 0 1-2.13 2.21h-.12a4.71 4.71 0 0 1 .81.9c.16.22.37.54.66.94l1.19 1.78h-1.21a5.64 5.64 0 0 0-.62-1.11 22.1 22.1 0 0 0-1.43-2 1 1 0 0 0-.89-.51v3.62h-1zm1 .81v3h.86a2 2 0 0 0 1.45-.41 1.62 1.62 0 0 0 .41-1.21 1.33 1.33 0 0 0-.78-1.22 2.77 2.77 0 0 0-1-.16zM117.34 197.69h4.39l-.13.79h-3.29v2.61h2.75v.83h-2.75v2.92h3.54v.83h-4.51zM133.86 198.23l-.42.69a3.26 3.26 0 0 0-2-.68c-1 0-1.6.5-1.6 1.32 0 .65.39 1 1.33 1.31l.93.3a2.71 2.71 0 0 1 1.42.81 2.19 2.19 0 0 1 .52 1.41 2.36 2.36 0 0 1-1.11 1.94 3.11 3.11 0 0 1-1.8.49 4.67 4.67 0 0 1-2.58-.73l.42-.75a3.53 3.53 0 0 0 2.16.7 1.84 1.84 0 0 0 1.27-.36 1.36 1.36 0 0 0 .58-1.14c0-.72-.47-1.21-1.44-1.5l-.81-.25a3 3 0 0 1-1.43-.72 1.85 1.85 0 0 1-.51-1.31 2.35 2.35 0 0 1 2.61-2.31 4.2 4.2 0 0 1 2.46.78zM140.81 197.63h5.32v.81h-2.23v7.23h-.9v-7.23h-2.16zM155.4 197.63l2.66 8H157l-.77-2.47h-3l-.77 2.47h-1l2.68-8zm-1.93 4.78H156s-.64-2-.85-2.69l-.38-1.25-.4 1.19zM164.65 197.63h.95v5.14a6.6 6.6 0 0 0 .09 1.23c.13.64.72 1 1.62 1a1.72 1.72 0 0 0 1.42-.51 1.94 1.94 0 0 0 .31-1.37v-5.48h1v5.59c0 1.15-.12 1.53-.61 2a3.07 3.07 0 0 1-2.11.62 2.36 2.36 0 0 1-2.38-1.16 2.43 2.43 0 0 1-.24-1.41zM177.79 197.64h1.88a3 3 0 0 1 2 .52 2.11 2.11 0 0 1 .79 1.68 2 2 0 0 1-2.13 2.21h-.12a4.39 4.39 0 0 1 .81.9l.66.94 1.19 1.78h-1.2a6.21 6.21 0 0 0-.62-1.11c-.51-.77-1-1.47-1.43-2a1 1 0 0 0-.9-.51v3.62h-1zm1 .81v3h.85a2 2 0 0 0 1.46-.41 1.62 1.62 0 0 0 .41-1.21 1.34 1.34 0 0 0-.79-1.22 2.73 2.73 0 0 0-1-.16zM193.27 197.63l2.66 8h-1.09l-.76-2.47h-3l-.77 2.47h-1l2.68-8zm-1.93 4.78h2.49l-.85-2.69-.38-1.25-.4 1.19zM202.83 197.65h1.11l2.68 5.12c.29.58.75 1.68.75 1.68s-.1-1.38-.11-2.44v-4.36h.94v8h-1l-2.58-4.91c-.38-.73-.75-1.49-.92-1.92.06.68.1 1.38.11 2.18l.05 4.65h-1zM215.29 197.63h5.32l-.06.81h-2.18v7.23h-.92v-7.23h-2.16zM34.35 212.8a.71.71 0 0 1 .72.71.72.72 0 1 1-.72-.71zm-.49 2.54l1-.15v6h-1zM37.47 215.39l.89-.21a2 2 0 0 1 .21.82 2.79 2.79 0 0 1 .72-.56 1.85 1.85 0 0 1 1-.32 1.48 1.48 0 0 1 1.16.59 1.4 1.4 0 0 1 .2.39 2.81 2.81 0 0 1 1.87-1 1.47 1.47 0 0 1 1.48 1.65v4.4h-1v-4.31c0-.56-.26-.85-.75-.85a1.44 1.44 0 0 0-.85.31 7.24 7.24 0 0 0-.59.49l-.11.1v4.26h-.92V217c0-.5 0-.58-.17-.75a.71.71 0 0 0-.59-.23 2.27 2.27 0 0 0-1.49.77v4.36h-.88v-4.35a2.86 2.86 0 0 0-.18-1.41zM52.56 213.14h1.11l2.67 5.12c.29.57.75 1.67.75 1.67s-.09-1.38-.09-2.43v-4.36h.95v8h-1l-2.58-4.91c-.37-.72-.75-1.49-.91-1.92.06.68.09 1.38.1 2.18v4.65h-1zM60.13 216a4.35 4.35 0 0 1 2.45-.79 1.58 1.58 0 0 1 1.61.92 2.27 2.27 0 0 1 .13 1v2.21a1.18 1.18 0 0 0 0 .27c0 .71.11 1 .48 1.16l-.46.66a1.2 1.2 0 0 1-.8-.86 2.18 2.18 0 0 1-1.69.78 1.87 1.87 0 0 1-1.41-.46 1.76 1.76 0 0 1-.46-1.2c0-1.32 1.13-2.1 3.09-2.1h.41v-.4c0-.52 0-.73-.19-.92a1 1 0 0 0-.78-.32 2.94 2.94 0 0 0-1.13.26 2.46 2.46 0 0 0-.74.44zm3.27 2.24h-.46a2.26 2.26 0 0 0-1.68.47 1.29 1.29 0 0 0-.33.93.94.94 0 0 0 1 1.07 1.61 1.61 0 0 0 1.42-.92zM69.63 215.3l-.28.72h-1.23v3.75c0 .64.18.87.75.87a1.26 1.26 0 0 0 .59-.12l.13.59a2.25 2.25 0 0 1-1 .23 1.81 1.81 0 0 1-.76-.16c-.41-.2-.56-.58-.56-1.16v-4h-.76v-.72h.76v-.06a11.8 11.8 0 0 1 .08-1.22v-.16l1-.21a15.65 15.65 0 0 0-.11 1.65zM71.8 215.36l.9-.17v4.19c0 .58.07.79.34 1a1.46 1.46 0 0 0 .73.22 1.78 1.78 0 0 0 1.49-1.06v-4.13l.9-.16v4.14a2.25 2.25 0 0 0 .14 1.09.91.91 0 0 0 .26.33l-.59.62a1.53 1.53 0 0 1-.63-.94 2.15 2.15 0 0 1-1.85.89 1.56 1.56 0 0 1-1.54-.83 2.19 2.19 0 0 1-.15-.87zM78.78 215.41l.91-.25a1.77 1.77 0 0 1 .2.87v.08a2.13 2.13 0 0 1 1.64-1 1.14 1.14 0 0 1 .32.06l-.38 1a.6.6 0 0 0-.26 0 1.38 1.38 0 0 0-1 .42 1.06 1.06 0 0 0-.34.93v3.65H79v-4.47a2.76 2.76 0 0 0-.22-1.29zM83.45 215.33l1-.17a3.6 3.6 0 0 1 .06.74v.15a2.25 2.25 0 0 1 1.72-.85 2 2 0 0 1 1.56.73 4.46 4.46 0 0 1 .18 4.31 2.07 2.07 0 0 1-1.81 1.06 2.28 2.28 0 0 1-1.6-.67v2.78l-.92.18v-6.85a4.77 4.77 0 0 0-.19-1.41zm1.06 4.45a2 2 0 0 0 1.43.76 1.35 1.35 0 0 0 1.23-.72 3.51 3.51 0 0 0 .24-1.48 4.07 4.07 0 0 0-.27-1.68 1.18 1.18 0 0 0-1.08-.64 2 2 0 0 0-1.55.82zM90.7 216a4.35 4.35 0 0 1 2.45-.79 1.58 1.58 0 0 1 1.61.92 2.27 2.27 0 0 1 .13 1v2.21a2.35 2.35 0 0 0 0 .27c0 .71.11 1 .48 1.16l-.47.66a1.2 1.2 0 0 1-.79-.86 2.18 2.18 0 0 1-1.69.78 1.87 1.87 0 0 1-1.41-.46 1.71 1.71 0 0 1-.46-1.2c0-1.32 1.13-2.1 3.09-2.1H94v-.4c0-.52 0-.73-.19-.92a1 1 0 0 0-.78-.32 2.94 2.94 0 0 0-1.13.26 2.46 2.46 0 0 0-.74.44zm3.3 2.19h-.46a2.24 2.24 0 0 0-1.68.47 1.29 1.29 0 0 0-.33.93c0 .69.34 1.07 1 1.07a1.61 1.61 0 0 0 1.42-.92zM97.53 215.41l.91-.25a1.67 1.67 0 0 1 .2.87v.08a2.14 2.14 0 0 1 1.64-1 1 1 0 0 1 .32.06l-.37 1a.66.66 0 0 0-.26 0 1.41 1.41 0 0 0-1 .42 1.08 1.08 0 0 0-.33.93v3.65h-.92v-4.47a2.76 2.76 0 0 0-.19-1.29zM102.05 212.83l.92-.22a2.27 2.27 0 0 1 .11.46 11.36 11.36 0 0 1 .07 1.23v6.85h-.91v-6.65a10.87 10.87 0 0 0-.1-1.29zm3.37 2.49h1.14l-2.29 2.53 2.82 3.3h-1.22l-2.68-3.3zM118.49 213.71l-.43.69a3.25 3.25 0 0 0-2-.68c-1 0-1.61.51-1.61 1.33 0 .64.39 1 1.34 1.31l.92.29a2.8 2.8 0 0 1 1.42.81 2.25 2.25 0 0 1 .53 1.42 2.36 2.36 0 0 1-1.11 1.93 3.13 3.13 0 0 1-1.81.49 4.74 4.74 0 0 1-2.58-.72l.42-.75a3.52 3.52 0 0 0 2.16.69 1.86 1.86 0 0 0 1.28-.35 1.38 1.38 0 0 0 .57-1.15c0-.72-.47-1.21-1.44-1.5l-.81-.25a3 3 0 0 1-1.43-.71 1.86 1.86 0 0 1-.5-1.31 2.34 2.34 0 0 1 2.6-2.31 4.29 4.29 0 0 1 2.48.77zM121.18 215.36l.9-.17v4.19c0 .58.07.79.34 1a1.46 1.46 0 0 0 .73.22 1.79 1.79 0 0 0 1.49-1.06v-4.13l.9-.16v4.14a2.12 2.12 0 0 0 .14 1.09.91.91 0 0 0 .26.33l-.59.62a1.53 1.53 0 0 1-.63-.94 2.16 2.16 0 0 1-1.85.89 1.56 1.56 0 0 1-1.54-.83 2.19 2.19 0 0 1-.15-.87zm.95-2.08a.61.61 0 0 1 0 1.22.61.61 0 0 1-.61-.62.6.6 0 0 1 .61-.6zm2.43 0a.61.61 0 1 1-.61.6.6.6 0 0 1 .61-.6zM132.87 212.75v6.52a11.82 11.82 0 0 0 .06 1.41 1.79 1.79 0 0 0 .11.47h-.93a1.89 1.89 0 0 1-.14-.6 1.63 1.63 0 0 1-.39.37 2 2 0 0 1-1.15.32c-1.51 0-2.38-1.09-2.38-3a3.06 3.06 0 0 1 1.21-2.7 1.83 1.83 0 0 1 1.12-.38 1.93 1.93 0 0 1 1.62.84v-3.4zm-.93 3.82a1.58 1.58 0 0 0-1.42-.61 1.25 1.25 0 0 0-1.09.61 2.85 2.85 0 0 0-.37 1.69c0 1 .1 1.45.45 1.83a1.13 1.13 0 0 0 1 .37 1.61 1.61 0 0 0 1.13-.37 1.16 1.16 0 0 0 .35-.43zM139.14 215.55l-.34.68a3.42 3.42 0 0 0-1.47-.42 1 1 0 0 0-1.1 1 .79.79 0 0 0 .17.52 1.08 1.08 0 0 0 .68.32l.77.17c1.05.23 1.56.76 1.56 1.63a2 2 0 0 1-2.21 1.91 4.27 4.27 0 0 1-2.14-.59l.35-.68a3.55 3.55 0 0 0 1.85.55c.72 0 1.19-.38 1.19-1s-.3-.83-1-1l-.73-.15a1.88 1.88 0 0 1-1.1-.58 1.54 1.54 0 0 1-.38-1 1.87 1.87 0 0 1 2.08-1.8 3.8 3.8 0 0 1 1.82.44zM145.54 215.8l-.51.63a1.48 1.48 0 0 0-1.11-.47 1.25 1.25 0 0 0-1.1.66 4.22 4.22 0 0 0-.33 1.91c0 1.31.51 2 1.44 2a1.63 1.63 0 0 0 1.26-.63l.5.59a2.27 2.27 0 0 1-1.78.77 2.14 2.14 0 0 1-1.87-.88 3.49 3.49 0 0 1-.56-2.07 3.2 3.2 0 0 1 .88-2.48 2.14 2.14 0 0 1 1.59-.69 2.3 2.3 0 0 1 1.59.66zM147.51 212.8l.91-.18a4.66 4.66 0 0 1 .15 1.35v2.16a2.61 2.61 0 0 1 .59-.46 2.33 2.33 0 0 1 1.35-.47 1.53 1.53 0 0 1 1.5.93 2.3 2.3 0 0 1 .1.84v4.18h-.9v-4a1.24 1.24 0 0 0-.23-.87 1 1 0 0 0-.68-.23 2.37 2.37 0 0 0-1.7 1v4.15h-.91V214a3.47 3.47 0 0 0-.18-1.2zM154.14 215.36l.92-.2.94 3.84c.13.54.21 1 .21 1s.08-.42.2-.84l1.05-3.87h1l1 3.92c.08.32.22.83.23.85s.12-.6.17-.81l.93-3.91h1l-1.65 5.87h-.87l-1.36-4.75s-.07.41-.13.6l-1.17 4.15h-.86zM163.65 216a4.35 4.35 0 0 1 2.45-.79 1.57 1.57 0 0 1 1.61.92 2.27 2.27 0 0 1 .13 1v2.21a2.35 2.35 0 0 0 0 .27c0 .71.1 1 .48 1.16l-.47.66a1.2 1.2 0 0 1-.8-.86 2.18 2.18 0 0 1-1.69.78 1.82 1.82 0 0 1-1.4-.46 1.72 1.72 0 0 1-.47-1.2c0-1.32 1.13-2.1 3.09-2.1h.41v-.4c0-.52 0-.73-.19-.92a1 1 0 0 0-.78-.32 2.94 2.94 0 0 0-1.13.26 2.46 2.46 0 0 0-.74.44zm3.27 2.24h-.46a2.26 2.26 0 0 0-1.68.47 1.28 1.28 0 0 0-.32.93c0 .69.34 1.07 1 1.07a1.61 1.61 0 0 0 1.41-.92zM170.48 215.41l.91-.25a1.67 1.67 0 0 1 .2.87v.08a2.16 2.16 0 0 1 1.65-1 1 1 0 0 1 .31.06l-.37 1a.63.63 0 0 0-.26 0 1.38 1.38 0 0 0-1 .42 1.06 1.06 0 0 0-.34.93v3.65h-.92v-4.47a2.64 2.64 0 0 0-.18-1.29zM174.92 215.33h3.89v.75l-3 4.37H179l-.43.7h-3.89v-.7l3.17-4.4h-2.93zM180.48 215.36l.91-.2.94 3.86c.13.54.21 1 .21 1s.08-.42.2-.84l1.05-3.87h1l1 3.92c.09.32.23.83.24.85s.13-.6.18-.81l.93-3.91h1l-1.66 5.87h-.86l-1.36-4.75s-.07.41-.13.6L183 221.2h-.85zM190 216a4.34 4.34 0 0 1 2.44-.79 1.58 1.58 0 0 1 1.62.92 2.27 2.27 0 0 1 .13 1v.29l-.05 1.92a2.35 2.35 0 0 0 0 .27c0 .71.11 1 .48 1.16l-.47.66a1.18 1.18 0 0 1-.79-.86 2.2 2.2 0 0 1-1.69.78 1.87 1.87 0 0 1-1.41-.46 1.77 1.77 0 0 1-.47-1.2c0-1.32 1.14-2.1 3.1-2.1h.41v-.4c0-.52 0-.73-.19-.92a1 1 0 0 0-.78-.32 2.9 2.9 0 0 0-1.13.26 2.46 2.46 0 0 0-.74.44zm3.27 2.24h-.46a2.26 2.26 0 0 0-1.68.47 1.29 1.29 0 0 0-.33.93c0 .69.34 1.07 1 1.07a1.61 1.61 0 0 0 1.42-.92zM196.84 212.82l.95-.19a6.48 6.48 0 0 1 .14 1.81V220c0 .46.07.59.33.59h.12l.19.6a1.13 1.13 0 0 1-.59.13.93.93 0 0 1-.69-.25 1 1 0 0 1-.28-.83v-5.75a4.53 4.53 0 0 0-.17-1.67zM205.33 212.75v6.52a11.82 11.82 0 0 0 .06 1.41 1.79 1.79 0 0 0 .11.47h-.93a1.91 1.91 0 0 1-.13-.6 1.85 1.85 0 0 1-.4.37 2 2 0 0 1-1.15.32c-1.51 0-2.38-1.09-2.38-3a3.06 3.06 0 0 1 1.21-2.7 1.85 1.85 0 0 1 1.12-.38 2 2 0 0 1 1.59.75v-3.31zm-.93 3.82a1.56 1.56 0 0 0-1.4-.57 1.25 1.25 0 0 0-1.1.61 2.85 2.85 0 0 0-.37 1.69c0 1 .1 1.45.46 1.83a1.11 1.11 0 0 0 1 .37 1.58 1.58 0 0 0 1.12-.37 1.16 1.16 0 0 0 .35-.43z" fill="#fff"/><path d="M117.6 106.7c-.07-.06-.15 0-.2 0s.09.42-.14.44c0 .14.09.1.09.2a1.65 1.65 0 0 0-.64 1.13 2.21 2.21 0 0 0-.39 1.88 22.85 22.85 0 0 0-.44 3.94.28.28 0 0 1 .14.1c-.4 1.9 0 2.92-.19 4.92h.09s-.07.3 0 .3c0-.37.18.14-.09.1 0 .41.25.74 0 1 .07 0 .25-.06.24 0-.19.08-.31.76 0 .83-.1.19-.17.26 0 .45-.11 0-.16-.14-.15 0 .3.44-.25.91 0 1.52a1.12 1.12 0 0 0-.45.2c0-.1-.13-.13-.24-.15-1.21.23-3 .55-2.61 1.92 0-.09 0-.1.09 0s0-.19 0-.2a.71.71 0 0 0 .15.34c.76.06 1.1.84 2.12.69 0-.06 0-.14.05-.15.43.14.7 0 1.13 0 .07.17 0 .18 0 .34.23 0-.07-.13.1-.15.32.22 0 .62.25.89-.21 0 0 .16-.15.2a.26.26 0 0 1 .15.14c-.15 0-.11.16-.15.25s.18-.17.24 0c-.17.11.12.33 0 .59.11.07.09.11.24 0 0 .18.17.12.15.3-.11-.07-.33-.26-.44-.15.1 0 .18.07.14.25.21 0-.06-.16.2-.1 0 .23 0 .5-.25.54a.48.48 0 0 0 .2.2c-.36 0 0 .46-.34.58.26-.11.39.51.44.6-.13-.23-.08.16-.2.1a1.15 1.15 0 0 0 .35.69 1.8 1.8 0 0 1-.2.19c.1.1.26.13.3.3s-.08.1-.15.05c0 .19.23.13.24.29s-.14.45 0 .45v.14c-.33 0 0 .23-.34.25v.25c.23-.09.46.21.64.44-.18 0-.24.16-.25.34s.22-.17.25 0-.12.38-.1.44c.13-.11.12.34.25.39-.1.07-.08.26-.15.35.27 0 .1.33.05.44.11 0 .12.17.2.25-.23 0-.07.25-.2.44.14 0 .19.2.35.25s-.13.1-.15.19c.55 0 .27-.05.44.3a.84.84 0 0 1-.49 0c.15.07-.13.26 0 .35.07-.21.14.23.2 0 0 0-.16-.16-.06-.14a2.14 2.14 0 0 1 .45.24c-.3.19-.22.15-.15.45H118c0 .21.17.18.29.09 0 .07.08.09.1.15s-.06.07 0 .1 0 1.11.39 1.19c0 .23-.24 0-.34.14.19 0 .34.42 0 .3 0 .27.25 0 .29.14s-.19.16 0 .2c.14-.18.06.27.3.15a1 1 0 0 1 0-.4h-.15c.15 0 0-.11 0-.2.25 0 .19-.1.05-.15a.33.33 0 0 1 .24.05c0-.29-.28-.21-.29-.44.17.12.14-.06.1-.15s.14 0 .15 0 0-.29 0-.39c-.28-.15 0-.31-.24-.6.08 0 0-.12.15-.09 0-.16-.16-.07-.15-.2s.18 0 .2-.05c-.17-.1.07-.53-.2-.69a1.16 1.16 0 0 0-.1-.84c.29-.16 0-.77-.1-1a.35.35 0 0 0 .15-.4h-.15c-.01 0 .1-.13.15-.19-.19 0 .08-.27-.2-.15a8.07 8.07 0 0 0 0-1.68c.14 0 .09-.23.15-.34-.48 0 0-.89-.15-1v.05c-.21-.19-.09-.61-.25-.94.4-.42-.29-1.13.11-1.58 0-.06-.2 0-.2-.09.45-.6 0-1.26.24-2.07a.52.52 0 0 1-.19-.2 2.25 2.25 0 0 0 0-1.18.9.9 0 0 0 .83-.2s-.12 0 0 0 .06.14.15.15c.08-.24.34-.22.45-.2-.05 0-.17-.18-.05-.2 0 .22.23.14.39.15s-.07-.12 0-.15a.13.13 0 0 0 .2 0v.15c0-.19.35-.18.44 0 .25-.18.54-.31.79-.49 0 .25.2-.09.15.15.18 0 .23-.06.39 0 0-.25.33-.42.1-.45.07 0 0-.18.1-.19s.12.07.2.09 0-.17 0-.19a.28.28 0 0 0 .15.15c0-.17.1-.08.15 0-.06-.26 0-.2.29-.25 0-.15-.11-.2.06-.24s-.06.29 0 .29a.65.65 0 0 1 .1-.34.11.11 0 0 1 .1.19h.39c0 .13.07.17.2.15 0-.23-.13.07-.15-.1.14-.06.12-.27.25-.34v.2c0 .1.23-.17.29-.3s0 .09.1.1c.13-.24.2-.19.54-.35 0 .23.08.25.3.35a.61.61 0 0 1 .1-.59.18.18 0 0 0 .2.19c0-.11-.18-.21 0-.24s.52-.06.83-.15c0 .1.14.13.25.15.07-.19 0-.36.2-.2 0-.13-.08-.28 0-.34a2.24 2.24 0 0 0 .1.44c.11-.08.05-.34.14-.44.05.17.2.22.3.34 0-.15-.05-.18-.05-.29.24-.12.56.12.69-.25.1.14-.07.24.1.29 0-.27.11-.08.15 0 .05-.12-.08-.32.14-.29 0-.39-.47-.05-.39-.44-.17 0-.08.18-.2.19 0-.18-.21-.22-.34-.29 0 .17-.13 0-.25.14-.18-.07-.14-.11-.34-.19 0 .11-.25 0-.4.15-.21-.25-.57.21-.84-.05-.08 0 0 .13-.09.15-.26-.09-.79.07-1.14-.15v.19a1.18 1.18 0 0 1-.39-.1c-.31.35-1.07.14-1.28.45-.24-.43-.56.07-1-.1v.15c-.27-.06-.49.11-.78.24-.23-.16-.46 0-.79 0-.19.37-.48.29-.74.3 0 .16-.25.08-.25.25-.2-.18-.44.09-.64 0 0 .08.08.12 0 .14s-.08.06-.29 0a3.77 3.77 0 0 1 0-1.23.23.23 0 0 1-.15-.15c.24-.18 0-.38 0-.49.07.06.12 0 .15 0-.39-.08.25-.44-.15-.59.27-.09 0-.47.15-.69-.06 0-.14 0-.15-.05a12.68 12.68 0 0 0 0-3.49c.15 0 .14-.13.19-.2-.41-.66.23-1.79-.09-2.71 0-.1.13-.06.09-.2s0-.33-.09-.54c.15 0 0-.25.2-.25.16-1.7.52-5.76-.2-6.5 0 0-.36-.26-.2-.2-.13-.05-.33.07-.39-.05 0 .15.16.15 0 .25.07.06.22 0 .19.2s-.29 0-.29 0a.57.57 0 0 0 .08.19zM135 151.48c-.44.27-.71.15-1.23.39 0-.1-.19-.05-.2-.15-.16 0-.22.15-.34.2s.05-.18-.06-.2a.26.26 0 0 1-.39 0c0 .35-.85 0-.88.35-.17.06 0-.16-.2-.1s-.54.15-.74.29c0 0 .09-.1 0-.14a5.42 5.42 0 0 0-.74.29c-.52-.25-1.38.25-2 .4-.19-.25-.65 0-.84.15-.13-.14-.32.08-.29-.11 0 .29-.29 0-.4.15.38 0-.56.31-.59.1-.38.24-.61.15-1 .35a9.92 9.92 0 0 0-2.12.24c-.21.45-1.64.28-1.92.55 0-.05 0-.06.05-.1-.24 0-.18.31-.45.3 0-.12.15-.06.15-.15a8.28 8.28 0 0 1-1.43.49c0-.06.07-.08 0-.1-.75.15-1.72.55-2.56.79 0 .08-.32.12-.34-.05-.1.11-.15.25-.3.29a7.88 7.88 0 0 0-1.43.1 6.28 6.28 0 0 1-2.36.69c-.1.12-.16.26-.35.3s-.09-.07-.19-.05a19.47 19.47 0 0 1-4.29 1.33 8.1 8.1 0 0 1-1.72.59c-.46.53-1.6.66-2 .93a5.56 5.56 0 0 0-1.87.79c0-.1-.13-.22-.15-.09.08.39-1 .09-.94.49-.44-.09-.93.39-1.33.34 0 .16-.06.21-.15.25s-.06-.14-.2-.1 0 .18 0 .2a20.82 20.82 0 0 0-3.94 1.43c-.43.32-1.5.43-2 .88-.55-.13-.8.38-1.23.59a7.22 7.22 0 0 1-1.63.45c-.66.56-1.72.74-2.41 1.28-.07 0-.1-.07-.2-.05s-.22.21-.35.29c-.39 0-.5.43-.88.3a22.6 22.6 0 0 0-3.1 1.33c-2.92 1.35-6.32 3-8.08 5 .1-.1-.06.27-.2.25.17 0 .2.26.24.29s0-.25.35-.19c0-.38.31-.52.44-.25-.07 0-.16.14 0 .1s-.07-.13.1-.15c.23.27.47-.23.84-.24 0 .06-.08.1 0 .1.4-.07.54-.39 1-.35.1-.05 0-.26.2-.24-.09.25.35-.22.24.09.6-.21 1.56-.31 2-.54-.06 0-.12.08 0 .1a20.32 20.32 0 0 0 3.15-1.28c.11-.09.16-.37.34-.15a.56.56 0 0 1 .1-.15c2.36-.82 4.47-1.9 6.7-2.85-.06 0-.12 0-.1-.1a14.89 14.89 0 0 0 3.35-1.33c.51 0 1-.47 1.43-.64s.92-.47 1.33-.59a8.13 8.13 0 0 0 2.61-1c.09.1.18 0 .3 0s0-.06 0-.2a.46.46 0 0 1 .54.05c.51-.32 1.21-.78 1.72-.69 0-.13-.2-.23 0-.29a1.93 1.93 0 0 0 1.43-.39s-.08.06-.1 0c.42-.14.69-.17 1-.3 0 .11-.3.12-.15.2.17-.11.38-.33.54-.3.28-.31.86-.19 1.28-.29a10.47 10.47 0 0 0 1.23-.6 12.43 12.43 0 0 0 2-.88c0 .06.07.06.05.15.53-.26 1.15-.07 1.58-.55.33.29.61-.29.89-.44s.42-.07.49-.3c-.14 0-.14.28-.25.1.23-.49 1.17-.27 1.43-.74.17.17.37 0 .49 0-.11 0 .13-.16.2-.2-.14.25.43-.16.34.11.11-.16.17-.13.06-.3.21-.11 1-.16 1.32-.49h-.09c.19-.06.25-.24.44-.3 0 .17.16 0 .25.1-.08.23-.17 0-.35 0 0 .21-.08.28-.15.4.46-.11.62-.77 1.24-.55 0 .07-.09.05-.1.1.24 0 .28-.11.49-.1 0-.12 0-.24.1-.24s.09.2.2.24a.7.7 0 0 1 .88-.1c0-.12.53-.06.34-.24-.09 0-.3.25-.44.1.41-.14.79-.56 1.18-.55a.22.22 0 0 0-.19.1c.23 0 .28-.09.29.05.09-.1.2 0 0-.15.13 0 .16.08.25.1s-.06-.12 0-.14c.55.05.76-.49 1-.55 0 .07-.25.1-.09.15s.44 0 .63-.15c-.05 0-.07 0-.09-.1s.55-.21.44 0c.27 0 .26-.3.49-.34 0 .2.55-.22.79 0-.06-.22.2-.13.3-.2s0 .19.14.2 0-.14 0-.15.34.06.2.2a1.73 1.73 0 0 0 .59-.1c.08-.19-.21 0-.2-.15.4-.13.61-.45.94-.63 0 .17.6.22.69 0a.21.21 0 0 1-.2-.1c.08 0 .13-.07.2-.09-.14.2.52-.11.64 0 .1-.24.44-.24.69-.34 0 0-.06-.09 0-.1.4.31.64-.11 1.13-.2.11 0 .28.13.4.1s.23-.25.44-.29c.36.34 1.32-.12 1.18-.3a.23.23 0 0 0 .15 0c.17 0 .21.08.3.15a.62.62 0 0 0 0-.45c.26.05.22-.07.6-.09a.18.18 0 0 0 0 .3c-.08 0-.16.07-.15.19.19-.12.23-.07.44 0-.09-.07.39-.24.25-.19s-.19.1-.35.09a2 2 0 0 1 .59-.54.64.64 0 0 0 .74 0v.24a.32.32 0 0 0 .35-.24c-.08 0-.17 0-.15-.1.44-.16.48 0 .89-.25a4.33 4.33 0 0 0 1.67-.24c0-.18.1-.2.25-.2s.14.08.19.15c-.1 0-.15 0-.14.15.28 0 .28-.24.54-.25 0 .07.19 0 .19.1a.15.15 0 0 0-.15.1 1.17 1.17 0 0 0 .3-.1c.05-.58.37 0 .54-.2-.08 0-.24 0-.19-.1a.39.39 0 0 0 .44-.19.94.94 0 0 0-.88.14c0-.24-.19.07-.35 0 .06-.15 0-.13-.1-.19-.09.09.09.17-.15.15 0-.19.11-.16.15-.25-.45-.05-.47.32-.84.34.09-.19-.21-.11-.34 0s.16-.18.05-.19c.15.11-.24.02-.38-.04zM78.39 17.39h1.72a18.62 18.62 0 0 1 8.72 3.16c.32.24.68.43.94.64s.54.63.88.88a9.36 9.36 0 0 1 1.53 1.28c0 .06.11 0 .1 0s0 .06 0 .1c.41.41 1 .67 1.33 1.09.19.22.3.51.49.74.53.63 1.22 1.26 1.73 2a44.8 44.8 0 0 1 5.22 9.41V37c.35.32.31.89.54 1.48a7.93 7.93 0 0 1 .4.74c.33 1.49 1.34 3.36 1.47 4.14a4.36 4.36 0 0 0 .45 1.82 61.53 61.53 0 0 1 1.47 7c.14-.11-.07-.29 0-.49a95.8 95.8 0 0 1 1.83 15.81c0 .19.15.24.19.4a1.39 1.39 0 0 0 .1 1.33c0 1.63.12 2.89.15 4.63-.14.12-.16.57 0 .64.22 1.48-.34 2.45-.25 3.84.09 0 0-.17.1-.2a.53.53 0 0 1-.25.59v.84c.07 0 0-.12 0-.2a13.13 13.13 0 0 1-.29 2.37c-.14.48-.06 1.37-.25 2a2.78 2.78 0 0 0-.24.69 15 15 0 0 1-.35 1.87c.06 0 0-.09 0-.15-1.15 4.73-2.24 10-4.24 14 0 .19-.08.24 0 .44-.11 0-.14.1-.2.15-.63 1.9-1.88 3.44-2.51 5.18-.84 1-1.33 2.64-2.12 3.79-.22.31-.53.56-.74.88s-.36.68-.59 1c-.46.62-.85 1.3-1.33 1.87-.19.23-.65.93-1 1.38-.24.27-.57.43-.74.64s-.36.77-.64 1.08c-.49.56-1.08 1.09-1.62 1.63-1.67 1.68-3.6 3.18-5.37 4.73-.07 0 0 0 0-.1a22 22 0 0 1-4.02 2.3c0 .75 0 1 .1 1.83-.06 0 0-.1-.1-.1-.06.29.15.3.15.54-.05 0-.09-.06-.1 0 .16.56-.18 1.55-.1 2.32 0 .07 0 .18.2.14-.33.87-.06 1.5-.4 2.66a10.72 10.72 0 0 1 0 2.12c.06 0 0-.09 0-.15 0 .26.1.71-.09.84 0 .2.07.29.15.3a9.56 9.56 0 0 0-.11 2.95c-.31.32 0 .81-.09 1.24 0 .11 0 .06-.1 0 0 .46.19 1-.05 1.14.22 0 0 .33 0 .73s.13.55.05.89-.13 0-.2.1a3.92 3.92 0 0 1 .15.39c-.32.27-.18 1.27-.1 1.73-.07.25-.28.74-.1.93 0 .12-.13 0-.15-.09s0 .37 0 .54c0 0 0-.1-.09-.1-.06.45.33.66.14 1.08-.08-.06 0-.26-.19-.24-.09.17 0 .17.09.24s-.1.09-.19.1a6.74 6.74 0 0 1-.1 1.53.63.63 0 0 1-.1-.64c-.13 0-.16.07-.15.19-.21-.22.22-.2.15-.44s-.36-.19-.24-.59c.13 0 0 .23.09.2.16-.19 0-.6-.09-.94.13-.14.13.11.19.2.13-.18.3-.44 0-.55a6.27 6.27 0 0 1 .15-2.16c-.09-.21-.21-.41 0-.54-.23 0 .07-.23-.1-.59a.22.22 0 0 0-.1.19c-.14-.09-.16-.33-.2-.54a1.28 1.28 0 0 0 .25.15c0-.26 0-.27-.1-.3s.32-.4.1-.44c.05-.09.09-.26.2-.15 0-.4-.27-.58-.35-.93-.11 0 0 .27 0 .39s0-.55-.1-.2c-.14-.09 0-.28.14-.29 0-.16-.13-.16-.1-.35.16.21.3.12.5.25.14-.38-.19-.41.05-.69-.09-.11-.25 0-.4-.2.06-.14.22-.18.15-.44a1.5 1.5 0 0 1 0-1.63c-.11-.41-.25-.73 0-1.08-.06-.57-.23-1 .1-1.43 0-.11-.13-.11-.15 0a11.18 11.18 0 0 1 .05-1.92c0-.17-.16.22-.2.05a.88.88 0 0 1 .25-.74c0-.5-.31-.77-.35-1.28-.15 0 0 .24-.19.2-.23-.72.47-.81.15-1.14 0-.1.17 0 .24 0-.13-.51.06-.89 0-1.43.06 0 0 .1.1.1 0-.34-.21-.39-.19-.7s.07 0 .14-.09 0-.63-.2-.5c0-.2.19-.46-.09-.34 0-.17.27-.15.19-.44.12 0 .12.13 0 .19.23-.27-.34-.53-.19-1a3 3 0 0 0-.79.34c-1.24.71-3 1.35-4.43 2 0-.05.09 0 .09-.09-1.53.51-3.25 1.36-4.72 1.37h.09c-2.18.51-4.52.93-6.84 1.38 0-.13.23 0 .19-.1a3.12 3.12 0 0 0-.93.2 7.41 7.41 0 0 0-2 .1c-1.49.07-3.28-.1-4.48.1-.08 0 0 .06 0 .15-1.32-.09-2.45-.32-3.65-.4 0-.05.1 0 .1-.1a26.5 26.5 0 0 1-7.74-2.61c-.64-.47-1.63-1-2.36-1.53-.12.07.15.14.2.2-.37-.16-.78-.7-1.28-.89 0-.06.08 0 .1.05a8.91 8.91 0 0 0-1.14-1.18c-.07 0 0 .09 0 .1a6.33 6.33 0 0 1-1.43-1.62h.1a26.54 26.54 0 0 1-1.53-2.61 13.32 13.32 0 0 1-.93-2.31 5.07 5.07 0 0 1-.45-2.32 14.88 14.88 0 0 0-.19-2.12v-1.1s.09.11.1.1a17.65 17.65 0 0 0 0-1.92 3.72 3.72 0 0 1 .3-1.38c-.14-1.62.62-2 .59-3.6.34-.32.37-1 .54-1.47 0 .08-.06.29 0 .29a6.05 6.05 0 0 0 .35-1.38c.16.1.13-.4.44-.54.21-.87.58-1.58.79-2.46a4.3 4.3 0 0 0 .82-1.84c0-.09.16 0 .19-.1.37-1.09.77-1.25 1.14-2.32 0 .15-.12.44 0 .5a4.65 4.65 0 0 1 .69-1.33c0 .14-.2.32-.1.39.55-1 .77-2.25 1.48-3-.05.22-.35.47-.2.74.35-.32.09-.68.49-.94A.15.15 0 0 0 43 93a18.39 18.39 0 0 1 2.37-3.75 5.52 5.52 0 0 1-.94 1.58c.19.15.32-.38.44-.29-.32.43-.79.71-1 1.28.13.55-.24.9-.49 1.23 0-.23.37-.42.24-.64-.58.68-.84 1.94-1.38 2.51 0-.23.28-.41.15-.59-.19.47-.61.65-.74 1.28 0 .09.08 0 .1 0-.6 1.16-1.21 2.56-1.77 3.59v-.05a32.18 32.18 0 0 0-1.68 3.89c0-.06 0-.18.15-.19a2.78 2.78 0 0 0-.54 1.57c0-.13.15-.47.24-.39-.14.38-.1 1-.39 1.38a.47.47 0 0 0-.1-.35c0 .3-.28.64-.19.89 0-.09 0-.16.09-.19-.25.63-.5 1.23-.69 1.82-.12-.07.09-.15-.05-.2a12.16 12.16 0 0 0-.14 2.81c.21-.19 0-.47.14-.74 0 .22 0 .53.1.24a4.4 4.4 0 0 0-.34 1.83c-.14-.09-.05-.49-.15-.74 0 .13 0 .21-.15.2s0-.25-.1-.3a2.24 2.24 0 0 0-.05 1.33 1.19 1.19 0 0 0-.09 1c0-.13 0-.21.09-.25s.27.41.25.69c0 .06-.18.22-.2.3-.11.46.11 1.44.15.88.08 1.4.56 2.74.74 4 0 .12-.06.27 0 .39.06.57.64 1.16.89 1.68a3.71 3.71 0 0 1 .39 1.13 19.51 19.51 0 0 0 1.81 2.17c-.08 0-.12-.07-.14 0 .49.31.68.93 1.18 1.23 0-.11-.17-.21-.05-.24a3.22 3.22 0 0 0 .54.64 4.43 4.43 0 0 0 1.63.88 9.57 9.57 0 0 0 2.41 1.58c.27-.08-.39-.28-.24-.39a10 10 0 0 1 2 1.13 20.09 20.09 0 0 0 3.65.54c-.2-.05-.44-.05-.54-.2.75.09 1.42.26 2.12.4-.11.24.76.47 1.08.19a.14.14 0 0 0 .1.25h4.09c-.08 0-.26-.06-.25.05a7.58 7.58 0 0 0 1.33-.2s-.12 0 0 0q.4-.06.84-.09c0 .07-.13 0-.1.14.59 0 1.14-.07 1.67-.14.08-.18-.16 0-.14-.15a5.11 5.11 0 0 0 1.23-.15h-.2a8.94 8.94 0 0 1 1.18.1c-.09.07-.32 0-.39.1a15.07 15.07 0 0 0 2.22-.64c.33-.08.64-.13 1.08-.2s1.37-.17.93-.29c.19-.09 1 .07.65-.1.21 0 .45.1.19-.05.22 0 .46.1.2-.05h.3c.12 0-.09 0-.1.1.3 0 .62-.27.88-.15a1.4 1.4 0 0 0-.73.24 7.92 7.92 0 0 0 2.26-.83 7 7 0 0 0 2.12-.84c-.65.09-1.18.56-1.77.54 1.31-.55 2.71-.73 4.08-1.23.08-.22.43-.37.79-.44.19-.06.08.18.25.14a5.52 5.52 0 0 1 1.77-1.08c0 .1-.13.1-.15.2a3.81 3.81 0 0 0 1.14-.49c0-.12.09-.61-.1-.69-.18.13.13.45 0 .59-.21-.62.41-1.25.1-1.68-.05-.21.28 0 .24-.24-.26 0-.26-.54-.14-.74 0 .08 0 .24.1.2a5.57 5.57 0 0 0 0-1.19c-.26 0 0 .18-.14.25 0-.25-.11-.45-.15-.69a.86.86 0 0 1 .39.49 1.65 1.65 0 0 0-.2-.74c0 .06-.07.12-.09 0a11.49 11.49 0 0 1 0-1.72c-.15.21-.33-.09-.2-.25v.15a3.56 3.56 0 0 0 0-.54c.07 0 0 .08.1.1a1.26 1.26 0 0 1 0-1c-.43-.4.17-1.5-.35-1.87-.06.15.15.27 0 .34.07-.77-.61-1.48-.29-2-.13-.44-.23-1.26 0-1.38 0-.37-.1-.44.1-.69a30.4 30.4 0 0 1-.35-6s0 .12 0 0c.2-.23-.2-.5 0-.73 0 .08 0 .24.1.19-.17-.4.08-.8-.05-1.23 0 .16-.1.08-.1 0a6.31 6.31 0 0 1 .15-1.92c-.05-.19-.19.19-.25 0a5.52 5.52 0 0 0-.14-2.36c.18-.06.22-.27.19-.55s-.16.11-.14 0A.72.72 0 0 1 78 98c-.07 0-.19 0-.14-.2-.15-2-.1-3.93-.2-5.56a2.11 2.11 0 0 1-.1-1.43 18.34 18.34 0 0 1-.19-4.48c0-.2-.17 0-.15-.15-.13-2.65-.57-6.45-.45-9.26-.07-.14-.09-.37-.19-.34a27.4 27.4 0 0 1-.1-4.29c0 .1.08.27.1.15-.27-.9.12-1.54 0-2.52.08 0 .12.2.15 0s-.12-.32 0-.34a.56.56 0 0 0 .1.15c-.3-.5-.06-1.07-.24-1.73 0-.19.17.06.14-.15a3.65 3.65 0 0 1-.1-1.23c.1.1.08.18.25.1.07-.38-.13-.49-.29-.64.18-.23-.13-.31-.15-.49a.28.28 0 0 0 .39-.15v.3a1.06 1.06 0 0 1 .3.14c1.62 4 2.12 9.46 2.36 14.68 0 .84-.06 1.67 0 2.37a2.84 2.84 0 0 1 .15.44 33.84 33.84 0 0 0 .3 3.65c0 .79-.09 1.52-.1 2.12a4.31 4.31 0 0 1 .29 1.27s0-.12 0 0a1.37 1.37 0 0 0-.2.44 6 6 0 0 1 .15 2.51c0 .18.16-.1.15.05a49.11 49.11 0 0 1 0 5.27c0 .1.18 0 .2.15s-.2.06-.15.25c.23.2.08.58.1.93a3 3 0 0 1 0 .69c0 .31-.06.17 0 .4.18.41-.37 1 .09 1.18-.06.19-.25.14-.14.39s.1-.14.14 0c-.11 1.11.18 1.43 0 2.27.09 0 .13-.08.15 0-.16 2.21.44 4.86.05 6.89a22.06 22.06 0 0 1 .15 4 19.55 19.55 0 0 1 .1 3.21 6.63 6.63 0 0 1-.2 2.16.36.36 0 0 1 .2.3c-.16-.09 0 .09-.15.2.17.43-.06.84.1 1.32.44-.16.63-.58 1-.78a4.21 4.21 0 0 1-1 1.08 3 3 0 0 0 .88-.59 3.85 3.85 0 0 0 .74-.69c0 .09-.17.09-.24.15 1.08-1.06 2.45-1.65 3.4-2.76 0 .1-.25.25-.15.3a9.81 9.81 0 0 0 .79-.79c-.18 0-.18.14-.35.14.19-.22.45-.63.69-.63h-.1c0 .19.25-.21.4-.34a2 2 0 0 1 .54-.39c-.37.36.72-.58.49-.69a1.44 1.44 0 0 0 .49-.2c.12-.12.15-.32.25-.44s.22-.15.4-.15c1-1.68 2.82-2.85 3.54-4.68-.21.16-.32.69-.54.69 1.16-1.37 1.84-3.21 2.86-4.73.09 0 0 .15.14 0a24.76 24.76 0 0 1 1.78-3.35c0 .08-.08.12 0 .15a9.26 9.26 0 0 0 .93-1.93h.25a108.47 108.47 0 0 0 5.42-16.79.23.23 0 0 1-.1.24c.36-.65.19-1.54.44-2.31.06.27-.15.53 0 .74.09-1.3.62-2.41.59-3.65a.53.53 0 0 1-.09.4c.16-1.74.55-3.25.59-5 .21-.07.3-.71.09-.89 0 .09 0 .21-.09.25v-3.55c-.07-1-.41-2.66-.35-3.44 0-.25.19-.47.2-.69a3.91 3.91 0 0 0-.2-1.19c0 .06 0 .15-.05.15-.12-.54 0-1.13 0-1.62 0-.14-.13.11-.09-.1-.59-5.18-1-10.92-2.27-15.52-.08-.31-.06-.68-.15-1 0-.05-.12-.1-.15-.14a15.44 15.44 0 0 1-.44-1.78 6.84 6.84 0 0 1-.44-2c-.85-2.1-1.4-4.29-2.22-6.35s-1.8-4-2.71-5.91c-.22 0 0 .1-.1.1a30.48 30.48 0 0 0-6.4-8c-2.4-2.07-6-4.26-10-4.44a12.27 12.27 0 0 0-3.94.65c.22.05-.3.15-.35 0-.28.22-.88.34-1 .59a14.85 14.85 0 0 0-8 8c0-.16.17-.31 0-.39a33.47 33.47 0 0 0-1.92 7c0-.1 0-.17-.1-.2-.14 2-.13 4-.1 6-.07 0 0-.19-.1-.2.06 1.2.46 2.48.25 3.4 0-.17.24.33.14.49-.1-.1 0-.38-.19-.44A2.65 2.65 0 0 0 65 47c-.2.49.15.83.25 1.18-.09.11-.13.18-.3.1-.06.15.15.27 0 .35a9.22 9.22 0 0 1-.15-.94c-.28-.13-.22-.32-.34-.34A32.88 32.88 0 0 1 63 36c.45-10.61 5.92-16.93 15.39-18.61z" fill-rule="evenodd" fill="#fff"/><path d="M190.26 137.63c-.17-.12-.25-.08-.25.06s-.14-.17 0-.15c-.26-.11-.28.44-.44.59-.05-.4-.39.32-.35-.15-.11.19-.43.34-.54.25-.18.39-.56.31-.84.64-.3-.17-.29 0-.54.1 0-.11 0-.14.05-.2-.25.24-.36.08-.59.29s-.18 0-.2-.05c-.31.31-.46.13-.93.4-.06-.16-.47 0-.64.1-.41-.28-1.1.06-1.63 0-.22 0 0-.15-.24-.2s-.33.07-.5.1c-.13-.23-.46-.28-.49-.1-.05-.21-.52 0-.49-.3-.39.08-.47-.19-.74-.09-.31-.44-1.08-.36-1.18-.89-.11-.08-.17.13-.35 0a6.84 6.84 0 0 1-.79-1.08c-.44-.16-.54-.63-.83-.94.1-.41-.42-.94-.5-1.53a7.76 7.76 0 0 0 3.11-.83c.15 0 .09-.2.19-.25a5 5 0 0 0 1.63-.64 14.6 14.6 0 0 0 4-3.25c.05-.21 0-.07 0-.15s.3-.2.39-.34c.25-.61.71-1.11 1-1.78a7.21 7.21 0 0 0 .2-1c.05-.21.16-.3.19-.5a2.77 2.77 0 0 0 0-.83c0-.18.1-.37.1-.54 0-.39-.16-.75-.19-1.14v-.59c-.21-1.24-1.5-1.65-2.76-1.92-.07 0 0 .15-.1.15s-.13-.17-.35-.1 0 .17-.24.15-.31 0-.5-.15a11.19 11.19 0 0 1-1.87.69c0 .16.25.1.1.25-.86 0-1.32.77-2.07 1.18.24-.53-.1.1-.29.29a2.26 2.26 0 0 1-.94.55 9.35 9.35 0 0 0-1.72 3c-.09.08-.23-.07-.3.1-.06.34-.68.52-.59 1.18-.25-.05-.18.21-.29.3a2.22 2.22 0 0 1-.1 1.13c.22 0 0-.18.1-.25.31.52-.41.86-.2 1.43-.2.3-.27.23-.2.69-.14-.24-.08.27-.25.3.06.2.22 0 .25.19a2.59 2.59 0 0 0-.1 1.28c-.38.14-.84.34-1.28.55a5 5 0 0 0-1.13.59c.08-.08.11.37-.1.1.07.09.05.28.1.39.21-.15.32 0 .54-.29.28 0 .22.3.44.34a5.87 5.87 0 0 1 1.68 0c0 .19-.26 0-.2.25.31.2-.07.92.25 1.28.16-.16-.19-.24-.1-.5.18.33.74.8.69 1a.15.15 0 0 0-.1-.15c0 .38.16.23.1.49.22.06.44.71 1 .74-.24 0 0 .17-.09.4.18-.15.22.2.49.1.18.13.08.22.1.34a1 1 0 0 1 .64.34 1.62 1.62 0 0 0 .64.5.33.33 0 0 1 0 .24c.09.05.16-.14.19 0s.12.43.5.45-.12-.13 0-.15a4.19 4.19 0 0 0 .83-.1c.2.12.24.38.55.39s-.17-.18 0-.19.42.2.64.24.75.1.64 0a2.45 2.45 0 0 0 1.92.15c.4.42 1 0 1.23-.19.13.09.06 0 .2.14a.33.33 0 0 0 0-.44c.27.2.24-.13.44-.05s.18.33 0 .44a.67.67 0 0 1 .54.05c-.19-.08.13-.26-.2-.14.17-.25.26-.33.45-.6.13.21.66.18.64 0 .16 0 0 .08.1.24.13 0 .48-.35.09-.29a3.21 3.21 0 0 1 .89-.55 3.14 3.14 0 0 0 1-.59c.12-.14.05-.33.29-.39s.1 0 .1.2c.26-.09.23-.46.49-.55s0 .17 0 .2c.24-.07.09-.26.1-.49s.22 0 .35-.05c-.3 0-.05-.07 0-.35V137c-.49.07-.6.42-.84.63zm-12.46-6.79c-.05-.07-.05-.18-.1-.25a16.63 16.63 0 0 1 1-2.22h-.1a4.71 4.71 0 0 1 .84-.94c.17-.54.59-.82.89-1.23a1.52 1.52 0 0 1 1-1.13c-.19-.24.59-.25.54-.65.14 0 .61-.12.5-.39.11-.12.09.07.24.05s-.14 0 0-.15c.15-.3.68.09.64-.39.19.07.91-.07.94-.35a.28.28 0 0 1 .15.15c.05 0 0-.09.05-.15.53.09 1.17.23.93.94 0 .08 0 0 0 0 .17.29-.16.88 0 1.43 0 .14-.15.14-.2.24a1.69 1.69 0 0 1-.1.89 5.63 5.63 0 0 1-.44.69h-.19c-.15.2-.19.48-.35.69s-.48.39-.64.59-.06.37-.34.35c-.11.32-.46.39-.6.68a18.12 18.12 0 0 0-2.7 1.39c-.8.39-1.56.75-2.42 1.08.08-.38.13-1.09.46-1.32zM145 139.16c-.25 0-.43.13-.59 0 0 .28-.28.08-.45.25 0-.13 0-.21-.14-.2s.12.19 0 .2-.09 0-.1-.1.19-.16.05-.2-.35.35-.64.4c0-.06.08-.11 0-.15s-.22.11-.25 0 .07-.13 0-.15c-.13.24-.36 0-.64.05 0 .16-.33.27-.4.1-.09.17-.38.14-.54.25-.06-.24-.3-.12-.39 0 0-.07-.07-.1 0-.2-.19.1-.2.08-.35-.05-.17.4-.49-.1-.73.25-.12-.2-.47 0-.74 0v-.1a2.72 2.72 0 0 0-.69.14c-.24-.49-1.46.14-1.68-.29a.54.54 0 0 0-.54.05c0-.14-.35-.05-.2-.2-.2.24-.33-.21-.34.1a1.24 1.24 0 0 0-.5-.1c.12-.2-.32-.11-.49-.15a8.1 8.1 0 0 1-1.72-.93c0 .1 0 .16-.15.15-.22-.3-.64-.59-.84-.89 0 0 .08-.06.05-.1s-.29.06-.29-.05.08 0 .1 0c-.66-.29-.58-.89-1-1.28-.15-.41-.35-.76-.54-1.23 0-.12.08-.15.1-.25s-.19 0-.2-.1.09-.27.1-.34c.2.18.2-.13.34-.15-.12.18.13 0 .2 0a.23.23 0 0 1 0 .15 6.21 6.21 0 0 0 1.78-.25c0 .07-.09.05-.1.1a7.57 7.57 0 0 0 2.81-1.08c0-.05.1-.42.24-.15.75-.53 1.6-.92 2.27-1.48a10.25 10.25 0 0 0 2.51-3.3c-.06 0-.12 0-.1-.1a6.51 6.51 0 0 0 .89-3.54 3.46 3.46 0 0 1-.1-.89.14.14 0 0 1-.15-.1c0-1.81-2.3-3-4.53-2.36-.09.08.07.15-.1.19s-.23 0-.34 0 .08.1 0 .2a.73.73 0 0 1-.55 0c-.45.31-.9.86-1.47.89-.07.19.14.12.14.25a1.77 1.77 0 0 0-1.21.76c-.21.2-.51.31-.69.55.21-.49-.18 0-.15.14-.24 0-.29.26-.09 0a8.9 8.9 0 0 0-2.42 3.74c-.28-.15-.19.61-.44.35-.06.33-.39.57-.25.94a.33.33 0 0 1-.15 0 4.27 4.27 0 0 0-.08 1.25c.28.39-.1.8-.19 1.13a.54.54 0 0 1 .15.3c0 .08-.09.11-.2.1s.09.1 0 .24c-.07-.05-.12-.05-.15 0 .16 0 .07.16.15.2-.15.07-.29.42-.1.54 0-.06 0-.12.1-.1a7.31 7.31 0 0 0 0 .94c-.34.12-.26.48-.54.49.13 0 .09.24.14.35.15-.18.27-.09.45-.2 0 .4.41.44.34.93-.1.1-.13 0-.2 0-.05.25.12.29.1.5.13 0 .16-.1.2 0s-.18.08-.2.19c.41.23 0 1.19.5 1.19-.09-.13-.23-.2-.25-.4a6.8 6.8 0 0 1 .89.89c-.1 0-.1-.13-.2-.15.06.26.27.33.15.54.33-.05.33.6.88.5 0 .11.13.31.1.44 0-.27.24.31.35 0 .11.11.32.18.19.39.14.08.58-.06.45.2.32 0 .47.28.69.45 0-.22.29 0 .29 0s-.07.13-.09.2c.15 0 .09-.14.24-.1s.1.2 0 .3a1.82 1.82 0 0 0 .54.19c.07-.12-.19-.15 0-.19.35 0 .61-.12.94-.15a.38.38 0 0 0 .49.34c-.08 0-.16-.18 0-.19s.56.25.64.29.49-.16.59 0c0-.06 0-.14.05-.15 0 .17.31.12.35.3.4-.25.93.2 1.38-.1.07.25.49.17.69.3.09-.24.39-.12.44-.35 0 .08.06 0 .15 0-.1.1.05.11.1.2.2-.18 0-.35.14-.44.19.15.14 0 .4 0 .08.07-.08.28.1.34-.16 0-.1.13-.2.15s.11.06.29 0c0 .11.19.2.2.1-.32 0 .39-.21.15-.15s-.18.05-.3.05c.18-.19.31-.41.6-.49 0 .27.41.22.59.14 0 .09-.15.21 0 .25a.78.78 0 0 0 .29-.25.13.13 0 0 1-.15-.09c.6-.3 1.78 0 2.32-.69.16.08 0 .17.2.09 0 .1-.15.09-.1.25.25-.11.35-.35.64-.29 0 .11-.15.05-.15.15h.2c.09-.08 0-.35.15-.35s.18.23.29 0a.15.15 0 0 1-.15-.1.45.45 0 0 0 .37-.21zm-14.49-7.78a2.56 2.56 0 0 0 .35-1.18c.09 0 0-.19.2-.15 0-.3 0-.64.24-.74.06-.15 0-.11 0-.29.65-.6.86-1.33 1.48-2a2.61 2.61 0 0 1 1.33-1.72c0-.11.09-.14 0-.29.24.11.3-.22.54-.25 0 0-.11 0-.1-.15s.15 0 .2.05c.08-.08 0-.18.1-.3s.65 0 .49-.34c.33.08.54-.3.89-.34.07 0 0-.13.05-.2a.14.14 0 0 1 .15.1c.06 0 0-.12 0-.2a4.9 4.9 0 0 1 1.83 0 1.81 1.81 0 0 0 .15.94c0 .14-.13.16-.15.29a1.55 1.55 0 0 1-.35 1.68c0 .78-.5 1-.64 1.62-.09 0-.09.14-.24.1 0 .36-.34.35-.35.69-.24 0-.26.2-.49.2a23.89 23.89 0 0 1-5.91 3.45c.1-.35.5-.67.27-.97z" fill="#fff"/><path d="M128.55 130.19v-.07s-.01.04 0 .07zM128.55 130.19v.16c0 .05.02-.11 0-.16zM94.79 133.28v-.06.06zM115 139.56c-.23 0-.38.15-.64.14 0 .32-.29.11-.45.3 0-.11 0-.16-.14-.15s0 .17-.1.15.19-.19 0-.19-.34.38-.59.49a.23.23 0 0 1 .05-.15c-.23-.05-.31.28-.4-.05 0 .2-.21.17-.24.05a.28.28 0 0 1-.4.1c-.37.45-1.06.33-1.52.59-.07-.11.12-.19 0-.2-.12.16-.23.15-.4.05-.08.44-.54 0-.79.39-.2-.25-.59.3-.88 0-.71.24-1.59.15-2.46.4 0-.1-.15 0-.06-.15a.78.78 0 0 0-.64.15c0-.18-.31.06-.19-.15-.17.16-.28 0-.4.05.24.22-.48 0-.59-.05a8.8 8.8 0 0 1-.89 0 9.91 9.91 0 0 1-1.77-.59c0 .11 0 .15-.14.15a11.87 11.87 0 0 1-1.48-.55v-.09c-.19 0-.22.08-.4 0-.18-.36-.59-.24-.79-.64v-.19c0-.02-.28-.15-.39-.25s-.18-.36-.3-.49c-.34-.38-.76-.68-.64-1-.06-.06-.24 0-.24-.14a8 8 0 0 0-.25-1.88 9.47 9.47 0 0 0 2.22-.59c.17-.1.18-.27.39-.1 0-.13.1-.09.15-.14a12.05 12.05 0 0 0 6.16-3.75h-.15a5.43 5.43 0 0 0 1.77-4.87c.26-2.38-1.55-4-4.23-3.4v.15c-.2 0-.41-.08-.5.1h.1l-.39.15c-.75-.16-1.23.77-2 .94 0 .08.14 0 .15.09-.21.08-1.57.75-1.28.94-.25.22-.53.39-.79.59.24-.44-.41.35-.45.4s.12 0 .1.05c-.21.34-.7.56-1 1a8.24 8.24 0 0 0-.59 1.19 7.83 7.83 0 0 0-.84 1.92.23.23 0 0 1-.15-.06c0 .14 0 .26-.09.15 0 .21 0 .38-.25.4-.07.37-.34.64-.25 1-.37.14-.1.86-.14 1.35a.73.73 0 0 1 .1.49 30.29 30.29 0 0 0-3.84 1.24c0 .08 0 .2-.1.24s-.19-.12-.2 0c.16.09 0 .32.1.4.08-.14.23-.2.35 0 0-.18.16-.3.44-.25.11.48.51.27.89.25.22.36.76-.1 1.08.14.13 0 0-.19.2-.14-.18.25.43-.17.2.14.26 0 .6 0 .73.1s0 .22-.1.1c0 .12 0 .22.15.25s.06-.08.1-.1c0 .14.11.15.1.3-.05 0-.06 0-.1-.05.17.32.12.86.3 1.18.09 0 .09-.07.14-.1.15.22.45.55.2.74 0-.07-.08-.09-.1-.15a.31.31 0 0 0 .15-.1c-.07-.11-.37-.24-.44-.2a2 2 0 0 0 .64.65c-.06.22.22.36 0 .54-.07 0 0-.09-.1-.1 0 .2.12.3.24.49 0-.13.16-.09.2 0s-.17.09-.15.25c.48 0 .32 1 .84 1.18 0-.22-.42-.27-.29-.44.3.3.75.45 1.08.74-.14 0-.1-.1-.2-.1.12.14.09.39.25.29 0 0-.06 0 0 0s0 .11 0 .3c.21 0 0-.1.1-.1a1.3 1.3 0 0 0 .93.49c.12 0 .27-.18.35 0h-.2c.16 0 .18.21.3.3.08-.26.4.16.34-.15.17 0 .49.06.35.25.21.06.31-.06.54-.1v.14c.44 0 .72.19 1.08.2a.24.24 0 0 1 0 .2c.26-.21.31.1.4.25.19 0 .27.08.49.05.06-.14-.26-.13-.1-.2.43 0 .6-.25 1-.25 0 .22.44.33.59.25-.07 0-.15-.08-.14-.2a4.6 4.6 0 0 0 1.47.1v-.15c.09.15.45.05.4.2.55-.33 1 0 1.53-.3.55.51 1.15-.49 1.52-.15.08-.1.17-.32 0-.39.11-.1.22 0 .3 0 0-.14.08-.21.24-.2s0 .28.15.35c-.12 0-.15.07-.19.15.13.13.12-.13.29-.1s.2.16.25.1c-.17-.05.05-.1.05-.15s-.21.14-.25 0c.3-.13.26-.39.59-.54 0 .29.39 0 .54.19-.06-.15 0-.16.15-.19v.24c.2 0 .25-.15.3-.29s-.14 0-.15 0c.33-.12.29-.22.59-.15a.75.75 0 0 1 .15-.2 2.26 2.26 0 0 0 1.72-.78c.14.1 0 .18.2 0 0 .16-.14.1-.1.25.31-.07.46-.46.69-.34 0 .07-.19.12 0 .14s0-.31.25-.44.22.2.34 0c-.11 0-.18 0-.2-.1a.36.36 0 0 0 .47-.27zm-17.69-6.7a3 3 0 0 1 1-2.12.3.3 0 0 1 0-.2c.8-.73.9-2.15 1.87-2.71h-.1c.11-.24.53-.19.55-.64a.56.56 0 0 0 .54-.49c.08-.09.14 0 .24 0-.08-.16 0-.22.1-.35.16 0 .21-.08.4 0 .17-.46.92-.4 1.18-.89a.15.15 0 0 1 .15.1c.29-.45 1.54-.22 1.72 0 .18.46-.12 1.09.1 1.48 0 .16-.15.14-.2.24a2.6 2.6 0 0 1-.1 1 6 6 0 0 1-.69.84c-.08.11-.08.28-.14.39a14.87 14.87 0 0 1-2.07 1.87c-.07 0-.14 0-.15-.05a37.47 37.47 0 0 1-4.43 1.78c-.13-.11-.03-.29.07-.25zM176.07 138.87a2.42 2.42 0 0 0-1.43-.15c.16-.18-.29-.07-.44-.1s.06-.14 0-.25-.16.11-.25.15c0-.15-.16-.06-.14-.19s.27 0 .29-.1c-.47-.21-1 .13-1.43-.15.08 0 .19 0 .2-.05-.2-.07-.45-.07-.59-.2.11 0 .18 0 .2-.1a.51.51 0 0 0-.3.05c-.11-.3-.65-.17-.69-.54-.73.08-1.12-.57-1.82-.69.16-.14-.26-.2-.1-.34-.16-.09-.45-.05-.49-.25s.13 0 .14-.1c-.21-.06-.44-.11-.44-.39-.55.07-.8-.95-1.23-.84 0-.4-.59-.64-.89-1 0-.07.09 0 .1-.1-.31-.26-.55-.6-.84-.89-.14-.79-.72-1.15-1-1.77-.1-.47-.68-.82-.44-1.19-.15-.14-.18-.41-.3-.58-.37 0-.11-.7-.44-.84 0-.14 0-.49-.1-.35.06 0 .06.14 0 .15a3.28 3.28 0 0 1-.3-1.13c-.07-.43-.66-1.37-.44-1.38a15.62 15.62 0 0 1-.54-3.15c0-.09-.17.06-.15-.15.25-.08.38-.27.64-.35.09-.09-.06-.14 0-.24.89-.24 1.18-1.1 1.87-1.53.67-1.06 1.67-1.78 2.12-3a3 3 0 0 0 .89-1.68 20.76 20.76 0 0 0 2.31-7.14c0-.06-.14-.09-.1-.25s.21-.55.05-.49a1.05 1.05 0 0 1 .25-.84 12.69 12.69 0 0 1 .1-3c-.13-.14-.11.06-.25 0 0-.16-.05-.18-.05-.3s.11-.06.15-.1a9.17 9.17 0 0 0-.15-2.36v.2a6.49 6.49 0 0 0-.34-1.83c.11 0 .16.43.24.35-.12-.42-.42-.67-.54-1.09v.1c-.73-1.59-1.93-3.07-4.23-2.81-1.9.22-3 1.71-3.7 3.16h-.19c-.05.1 0 .29-.2.24.08.23-.22.75-.35.59a4.62 4.62 0 0 0-.49 1.73.3.3 0 0 1-.15 0 8.47 8.47 0 0 0-.2 2.21c.33.59-.4 1.69-.14 2.57 0 .09-.19 0-.15.19s.09.15.05.3h-.15c0 .22.14.29.1.54h-.1c0 .5-.2.44-.1.84.16.06 0-.16.2-.1 0 .21 0 .68-.1.35.19.6-.25 1.51 0 1.92 0-.09.1-.22.1-.1-.11.28.23.61 0 .93.05-.3-.21-.45-.35-.69a3.55 3.55 0 0 0 .2.94c0-.15-.11-.24 0-.34h.1c-.08.51.16 1-.1 1.52-.13 0 0-.23-.1-.19a1.43 1.43 0 0 0 .2 1 .33.33 0 0 0-.25 0c0 .22 0 .37.1.35.06.68-.42 1.37-.05 1.91.07-.31-.22-.53 0-.78a9.19 9.19 0 0 1 .4 2 .72.72 0 0 0-.1-.35c-.06.23.15.44 0 .59v-.19c.08.22 0 .45 0 .59.15-.28.06.34.1.59.08.57.59 1.15.19 1.58.28-.17.07.41.25.49 0-.16.1-.08.1 0-.29.39-.87.51-1.28.79h-.3c-.33.37-1 .38-1.43.69a13.54 13.54 0 0 0-3.49.83c-2.14.74-5.25 1.84-5.67 4.14a7.07 7.07 0 0 0 0 1.78 50.8 50.8 0 0 0 1.28 9.4c0-.22.12.1.2.1s-.15.27 0 .35c0-.22.29-.13.34-.05 0-.28-.25-.36 0-.69-.62-.43.07-.76.14-1.28s-.16-.57-.1-1c.07 0 0 .09.1.1.21-.74-.11-1.79.1-2.56l.05.1c.19-1.06.2-2.42.3-3.26a17.87 17.87 0 0 0 .1-2.46c.39-.58 1-.84 1.42-1.28 0 .18.31 0 .1 0 2.83-1.06 6-1.76 8.77-2.9 0 .18.08.21 0 .39s-.23 0-.25.1.25.08.25.25c-.31.27-.16.89.05 1.18.12 0-.11-.23 0-.3a14.11 14.11 0 0 0 .83 1.48 1 1 0 0 0 .11 1c0-.07-.06-.25 0-.24a5 5 0 0 1 .35 1c.1.41.44.82.54 1.28 0-.06 0-.11.1-.09-.1.2.17.52.2.73h-.1c.13.34.49.58.64.94.08.19.05.47.14.64s.39.33.55.54a2.45 2.45 0 0 0 1.12 1.74.21.21 0 0 1 0-.06c.23.1.48.34.3.59.21 0 .44.14.49-.1.13.07.24.17.15.34a.45.45 0 0 1 .44.4c-.2-.07-.18.08-.25.14s-.12-.1-.24-.09c.29.16.28.57.49.64-.05 0-.11-.27-.05-.25.26.26 1.17.29 1 .64.31.2.32.45.59.64 0-.08-.08-.13 0-.15s.2.13.24.25-.21 0-.24.1a1.2 1.2 0 0 0 .69.24c-.09 0-.25-.21-.15-.24.25 0 .68.56.64.29a.67.67 0 0 0 .64.35 1.85 1.85 0 0 0 .93.59c.08 0 0-.12.06-.1s.2.2.29.25a2.71 2.71 0 0 0 1.48.29c.32-.08.34.13.49.25-.1 0-.34-.08-.3.1.42.1 1-.12 1.29.19-.56 0 0 .13.14.05.24-.49.68.11.94 0-.15 0-.29 0-.3-.19a1 1 0 0 0 .86-.01zm-14.33-19.56c-.53-1.33-.28-3.22-.54-4.73.05 0 0 .09 0 .15a8.82 8.82 0 0 1 0-2c-.17.1-.14-.65 0-.49a.72.72 0 0 0-.19-.4c.48-1.73.17-4.1.78-5.91 0-.17-.06-.36-.09-.54s.12-.17.15-.29a17.92 17.92 0 0 1 .34-2c0-.17.19-.31.25-.49a7.33 7.33 0 0 1 .24-1.13s.14-.12.15-.15 0-.31 0-.44a7.94 7.94 0 0 1 1.23-1.53 1.77 1.77 0 0 1 1.67-.79 1.53 1.53 0 0 1 1.27 1.18c0 .11.13-.07.14.1a5.43 5.43 0 0 1 .45 2.32c.12-.31.11.07.2.2-.06.07-.2.06-.2.19.55.21-.25 1.19.24 1.58-.25.47 0 1.5-.24 2 0 .09.19 0 .15.2s-.11.22-.15.34.11 0 .1.15A24.94 24.94 0 0 1 166 113c0 .08.09 0 .13-.1s0-.06 0-.1a.36.36 0 0 1 0 .1c-.22.94-1 1.66-1.26 2.71-.58.32-.76 1-1.09 1.67-.67.57-1 1.24-1.72 1.73-.15-.01-.06.29-.32.3z" fill="#fff"/><path d="M166.15 112.86a.36.36 0 0 0 0-.1v.1z" fill="#fff"/></g></g></svg>