<svg xmlns="http://www.w3.org/2000/svg" viewBox="0 0 200 200"><g data-name="Ebene 2"><g data-name="Ebene 1"><path fill="#847465" opacity=".06" d="M0 0h200v200H0z"/><path d="M59.41 48.77c-9.78 0-14.67 24.21-14.67 29.92a14.69 14.69 0 0 0 12.08 14.44v55.51a2.59 2.59 0 0 0 5.18 0V93.13a14.7 14.7 0 0 0 12.09-14.44c0-5.71-4.9-29.92-14.68-29.92zm0 39.42a9.51 9.51 0 0 1-9.49-9.5c0-7.87 6-24.74 9.49-24.74s9.49 16.87 9.49 24.74a9.51 9.51 0 0 1-9.49 9.5zM98.16 49.36a2.6 2.6 0 0 0-4.24 2v97.28a2.59 2.59 0 0 0 5.18 0V101.1c5.42-1.59 13-6.57 13-17.47 0-22.51-13.33-33.8-13.9-34.27zm.94 46.22V58.25a43.22 43.22 0 0 1 7.78 25.38c0 7.4-4.6 10.61-7.78 12zM152.67 48.77a2.59 2.59 0 0 0-2.59 2.59v12.83h-5.32V51.36a2.59 2.59 0 1 0-5.18 0v12.83h-5.32V51.36a2.6 2.6 0 0 0-5.19 0v23.42a13.12 13.12 0 0 0 10.51 12.84v61a2.59 2.59 0 0 0 5.18 0v-61a13.12 13.12 0 0 0 10.5-12.84V51.36a2.59 2.59 0 0 0-2.59-2.59zm-2.59 26a7.91 7.91 0 1 1-15.82 0v-5.4h15.82z" fill="#fff"/></g></g></svg>